<?xml version="1.0" encoding="utf-8"?>
<!-- Generator: Adobe Illustrator 24.1.2, SVG Export Plug-In . SVG Version: 6.00 Build 0)  -->
<svg version="1.1" id="Layer_1" xmlns="http://www.w3.org/2000/svg" xmlns:xlink="http://www.w3.org/1999/xlink" x="0px" y="0px"
	 viewBox="0 0 800 300" style="enable-background:new 0 0 800 300;" xml:space="preserve">
<style type="text/css">
	.st0{fill:#FEFEFE;}
	.st1{fill:#4CFE43;}
	.st2{fill:#1A488D;}
	.st3{fill:#ED7F21;}
	.st4{fill:#ED8021;}
	.st5{fill:#1A488E;}
	.st6{fill:#FCFDFD;}
	.st7{fill:#ED7F1F;}
	.st8{fill:#114189;}
	.st9{fill:#15438B;}
	.st10{fill:#EC7814;}
	.st11{fill:#14438B;}
	.st12{fill:#16448B;}
	.st13{fill:#12428A;}
	.st14{fill:#12418A;}
	.st15{fill:#13428A;}
	.st16{fill:#FADFC8;}
	.st17{fill:#EC7A17;}
	.st18{fill:#16458C;}
	.st19{fill:#19478D;}
	.st20{fill:#14438A;}
	.st21{fill:#1A478D;}
	.st22{fill:#1C498E;}
	.st23{fill:#17468C;}
	.st24{fill:#18478D;}
	.st25{fill:#EE862D;}
	.st26{fill:#15448B;}
	.st27{fill:#EE8227;}
	.st28{fill:#EE852B;}
	.st29{fill:#EE8123;}
	.st30{fill:#1B498E;}
	.st31{fill:#17458C;}
	.st32{fill:#204D90;}
	.st33{fill:#1D4A8F;}
	.st34{fill:#1F4C90;}
	.st35{fill:#A7B8D4;}
	.st36{fill:#ED8225;}
	.st37{fill:#EE8124;}
	.st38{fill:#224F92;}
	.st39{fill:#224E91;}
	.st40{fill:#CBD5E4;}
	.st41{fill:#255193;}
	.st42{fill:#EE8326;}
	.st43{fill:#5E7FB0;}
	.st44{fill:#A8B9D4;}
	.st45{fill:#6E8BB7;}
	.st46{fill:#C4D0E2;}
	.st47{fill:#9CAFCD;}
	.st48{fill:#CED8E7;}
	.st49{fill:#5B7BAE;}
	.st50{fill:#1B488E;}
	.st51{fill:#AEBED7;}
	.st52{fill:#A4B6D2;}
	.st53{fill:#365F9B;}
	.st54{fill:#1E4B90;}
	.st55{fill:#B4C4DA;}
	.st56{fill:#B5C4DA;}
	.st57{fill:#7893BC;}
	.st58{fill:#B7C5DB;}
	.st59{fill:#3B629E;}
	.st60{fill:#94AACA;}
	.st61{fill:#305898;}
	.st62{fill:#F19F58;}
	.st63{fill:#DAFED8;}
	.st64{fill:#6C89B6;}
	.st65{fill:#FDFDFE;}
	.st66{fill:#FAFBFC;}
	.st67{fill:#FBFCFD;}
	.st68{fill:#18468D;}
	.st69{fill:#124189;}
	.st70{fill:#124289;}
	.st71{fill:#6684B3;}
	.st72{fill:#1C498F;}
	.st73{fill:#013381;}
	.st74{fill:#093A85;}
	.st75{fill:#7C96BE;}
	.st76{fill:#0D3D87;}
	.st77{fill:#063884;}
	.st78{fill:#012F7E;}
	.st79{fill:#234F92;}
	.st80{fill:#033280;}
	.st81{fill:#002E7D;}
	.st82{fill:#03327F;}
	.st83{fill:#19468C;}
	.st84{fill:#0B3883;}
	.st85{fill:#083985;}
	.st86{fill:#123E87;}
	.st87{fill:#13438A;}
	.st88{fill:#002F7E;}
	.st89{fill:#02317F;}
	.st90{fill:#EB7005;}
	.st91{fill:#EB6E03;}
	.st92{fill:#EC7711;}
	.st93{fill:#EA6A02;}
	.st94{fill:#ED7F20;}
	.st95{fill:#EC7A16;}
	.st96{fill:#EC740C;}
	.st97{fill:#EB7208;}
	.st98{fill:#EB6D03;}
	.st99{fill:#ED7D1C;}
	.st100{fill:#EC7C19;}
	.st101{fill:#EC7611;}
	.st102{fill:#ED7E1E;}
	.st103{fill:#EC740B;}
	.st104{fill:#EC7916;}
	.st105{fill:#EC730B;}
	.st106{fill:#EB6F03;}
	.st107{fill:#002C7C;}
	.st108{fill:#002879;}
	.st109{fill:#ED7712;}
	.st110{fill:#ED7D1D;}
	.st111{fill:#1E4A8F;}
	.st112{fill:#013280;}
	.st113{fill:#073984;}
	.st114{fill:#A9BAD4;}
	.st115{fill:#1B478D;}
	.st116{fill:#ED8124;}
	.st117{fill:#FBE6D4;}
	.st118{fill:#FCEFE3;}
	.st119{fill:#EB6F04;}
	.st120{fill:#EB7004;}
	.st121{fill:#FDF5EE;}
</style>
<path class="st0" d="M201.24,80.09c7.35-7.68,16.65-12.86,27.1-16.43c-0.05-0.84-0.7-0.64-1.11-0.68
	c-18.14-2.12-35.55,0.06-52.14,7.02c-0.74,0.31-1.47,0.69-2.26,0.85c-2.06,0.43-3.48-0.66-3.14-2.52c0.26-1.42,0.69-2.87,1.37-4.18
	c10.13-19.24,26.82-30.48,50.86-32.71c9.47-0.88,18.9-0.41,28.3,0.81c1.49,0.19,2.16-0.18,2.81-1.36
	c8.31-15.23,21.84-24.23,40.76-26.8c3.59-0.49,7.07-0.04,10.5,0.74c2.38,0.54,2.84,2.53,1.02,4.23c-4.77,4.45-9.29,9.06-12.81,14.39
	c-1.74,2.64-3.32,5.35-4.65,8.41c4.13-0.75,8.06-1.7,12.09-2.25c23.32-3.15,42.56,3.4,58.05,19.02c3.43,3.46,6.54,7.11,9.21,11.07
	c0.8,1.18,1.05,2.3,0.08,3.43c-1.02,1.19-2.31,0.8-3.57,0.34c-8.86-3.21-17.94-5.67-27.54-6.37c-8.87-0.64-17.56,0.06-26.51,2.67
	c2.27,0.63,4.13,1.09,5.96,1.66c17.03,5.28,28.07,15.96,34.84,30.46c0.97,2.08,1.76,4.23,2.6,6.36c0.29,0.75,0.5,1.06,1.63,0.82
	c2.7-0.58,5.04-1.95,7.71-2.57c2.48-0.58,4.86-1.45,7.48-1.51c7.08-0.17,14.15-0.12,21.23-0.09c5.8,0.03,11.1,1.54,16.51,3
	c4.82,1.3,8.9,3.69,12.98,6.19c2.05,1.26,3.23,3.2,5.18,4.58c0.48-1.09-0.03-2.28,0.75-3.33c1.62-2.2,3.44-3.61,6.76-3.42
	c4.59,0.27,9.21,0.06,13.82,0.09c1.21,0.01,2.48-0.22,3.53,0.63c0.2,0.16,0.71,0.28,0.86,0.17c2.22-1.51,4.78-0.76,7.17-0.78
	c9.79-0.09,19.61-0.32,29.38,0.08c5.74,0.24,11.55,0.24,17.21,0.11c20.97-0.48,41.93,0.03,62.88-0.22c8.42-0.1,16.83-0.01,25.25,0
	c2.41,0,5.09,2.22,5.52,4.33c0.59,2.89,0.53,5.8,0.44,8.7c-0.04,1.37,0.28,2.02,2,1.85c1.22-0.12,2.47-0.03,3.7,0.01
	c2.69,0.07,5.14,2.15,5.21,4.51c0.07,2.19,0,4.38,0.05,6.57c0.05,2.42-1.27,3.99-3.59,5.16c-1.52,0.77-1.58,2.57-3.05,3.77
	c2.46,0.21,4.54,0.73,6.62,1.16c3.13,0.64,4.74,3.24,6.53,5.34c1.12,1.32,1.59,1.71,3.19,0.47c2.74-2.12,5.71-3.99,9.09-5.34
	c2.19-0.88,4.54-1.15,6.79-1.68c5.7-1.35,11.41-1.34,16.82,1.2c1.44,0.68,2.19,1.92,3.19,2.96c0.78,0.8,1.42,1.17,2.83,0.96
	c3.57-0.54,6.95-0.21,9.58,2.56c1.14,1.19,1.88,2.27,1.74,3.86c-0.13,1.52-0.07,3.07-0.02,4.6c0.07,2.13-0.15,4.06-1.65,5.96
	c-1.69,2.14-1,4.54,0.37,6.76c4.4,7.14,5.56,14.77,3.69,22.67c-1.29,5.46-5.08,9.7-10.67,11.96c-4.12,1.67-8.78,2.82-13.55,1.55
	c-2.54-0.68-5.2-0.83-7.6-2.18c-3.1-1.74-5.25-4.07-6.91-6.84c-0.71-1.19-1.61-1.6-3.13-1.51c-3.25,0.19-6.48,0.69-9.79,0.13
	c-3.29-0.56-6.59-0.94-9.14-3.09c-1.37-1.15-2.45-0.8-3.93,0.02c-6.86,3.83-14.27,4.57-21.61,1.59c-3.18-1.29-5.86-3.79-6.52-7.29
	c-0.11-0.6-0.4-1.18-0.65-1.93c-1.75,2.09-2.54,4.34-3.32,6.61c-1.47,4.25-5.18,6.43-10.18,6.64c-4.25,0.18-7.6-1.01-10.13-4
	c-0.83-0.99-1.55-1.07-2.85-0.44c-2.07,0.99-4.54,1.25-6.79,1.6c-6.77,1.05-13.76,1.16-19.69-2.3c-2.51-1.46-3.67-0.78-5.84-0.09
	c-5.03,1.59-10.27,2.08-15.46,0.26c-0.23-0.08-0.48-0.16-0.65-0.31c-1.13-1.03-2.5-2.5-3.78-2.41c-1.33,0.09-2.41,1.84-3.81,2.52
	c-4.6,2.26-9.6,3.11-14.83,2.85c-3.03-0.15-5.93-0.87-8.82-1.67c-0.39-0.11-0.79-0.18-1.18-0.29c-1.71-0.47-2.54-2.99-4.31-2.32
	c-1.54,0.58-2.98,1.72-4.66,2.15c-5.56,1.41-11.11,2.61-17.05,1.97c-4.89-0.53-9.09-1.81-12.46-5.14c-0.91-0.9-1-2.1-2.02-3
	c-2.82,2.64-5.6,5.25-8.41,7.84c-1.25,1.15-2.84,1.96-4.3,2.81c-4.66,2.7-9.1,5.65-14.29,7.75c-5.19,2.1-10.6,3.53-15.93,5.09
	c-6.71,1.96-13.89,1.27-20.91,1.32c-6.57,0.05-10.27-3.31-12.68-7.96c-1.36-2.62-2.28-5.41-1.06-8.71c0.8-2.16,2.07-3.98,3.04-5.99
	c0.1-0.2,0.24-0.39,0.4-0.55c2.64-2.63,2.64-2.62,0.76-6.01c-0.22-0.39-0.42-0.79-0.53-1.21c-0.52-1.98-2.2-2.16-3.9-1.73
	c-2.61,0.67-5.27,0.54-7.83,0.28c-1.86-0.19-2.1,0.39-2.34,1.64c-1.4,7.21-3.79,14.15-6.99,20.89c-2.75,5.79-6.4,11.15-10.08,16.49
	c-0.17,0.24-0.29,0.5-0.62,1.08c2.05-0.66,3.14-1.92,4.31-3c2.39-2.21,4.65-4.55,7.4-6.42c1.16-0.79,2.38-1.85,3.94-0.8
	c1.43,0.96,1.07,2.28,0.61,3.6c-5.86,16.73-17.94,28.92-34.49,38.15c-16.49,9.2-34.7,13.33-53.69,15.29
	c-22.23,2.29-44.2,0.95-65.65-4.94c-11.93-3.28-22.95-8.15-32.46-15.57c-14.21-11.09-17.17-29.57-6.39-42.65
	c5.35-6.49,13.18-9.7,21.64-11.76c3.69-0.9,7.44-1.83,11.38-1.39c0.89,0.1,1.29-0.43,1.57-1.22c-12.07-1.01-23.24,1.03-33.48,6.76
	c-1.65,0.92-3.16,2.17-5.34,1.97c-0.31-0.03-0.64-0.06-0.75,0.34c-0.89,3.42-3.63,5.97-5.44,8.96
	c-11.22,18.46-7.1,35.84,11.66,48.87c14.03,9.75,30.17,15.17,47.51,18.06c30.8,5.14,60.91,2.99,90.17-7.06
	c19.95-6.85,37.2-17.24,51.23-31.68c0.61-0.63,1.33-1.13,2.26-1.19c2.32-0.15,4.58,0.14,6.76,0.87c1.09,0.37,1.83,1.02,1.73,2.13
	c-0.09,0.99-0.79,1.67-1.85,1.81c-2.39,0.31-3.42,1.74-4.56,3.45c-10.12,15.17-23.79,27.31-40.77,36.41
	c-23.75,12.73-49.68,19.67-77.21,21.99c-24.82,2.09-49.31,0.37-73.19-6.23c-14.32-3.95-27.2-10.31-37.77-19.86
	c-10.14-9.15-16.36-20.12-16.93-33.08c-0.82-18.56,10.81-34.21,30.37-41.68c3.79-1.44,7.73-2.44,11.68-3.42
	c1.21-0.3,1.49-0.52,1.07-1.74c-4.37-12.74-6.47-25.73-5.2-39.08c1.94-20.48,9.96-38.8,24.81-54.64c9.46-10.1,20.7-18.3,34.02-24.16
	c0.29-0.13,0.57-0.29,0.87-0.41c2.4-1.03,5.28-0.92,6.41,0.44c1.48,1.8,0.63,3.59-0.4,5.32c-0.15,0.25-0.32,0.5-0.48,0.75
	c-0.16,0.19-0.16,0.36,0.06,0.5C200.96,80.23,201.11,80.2,201.24,80.09z"/>
<path class="st1" d="M201.24,80.09c-0.43,0.53-0.87,1.06-1.3,1.59c-0.33-0.98,0.21-1.52,0.82-2.03
	C200.92,79.8,201.08,79.94,201.24,80.09z"/>
<path class="st2" d="M241.81,113.6c0-1.64,0-3.27,0-4.91c0.51-1.02-0.07-2.14,0.37-3.17c0.31-6.97,4.25-12.99,6.65-19.83
	c-11.45,2.94-21.73,7.35-30.92,13.68c-9.18,6.33-16.72,13.96-22.8,23.35c-1.21-5.52-1.59-10.6-1.01-15.72
	c2.32-20.34,15.85-32.59,36.55-39.53c4.48-1.5,9.16-2.53,14.02-3.85c-4.54-2.66-9.44-3.81-14.46-4.52
	c-18.12-2.58-35.72-0.79-52.75,5.29c-0.36,0.13-0.72,0.25-1.55,0.54c4.06-7.28,9.03-13.39,15.72-18.36
	c9.58-7.1,20.84-10.37,33.1-11.1c8.81-0.53,17.6-0.12,26.33,1.12c3.33,0.47,4.1,0.11,5.56-2.67c7.32-14.01,19.22-22.83,36.59-25.48
	c1.94-0.3,3.88-0.41,6.16-0.11c-1.64,1.72-3.13,3.22-4.56,4.78c-5.92,6.46-10.4,13.62-13.2,21.59c-0.31,0.89-0.58,1.69,0.26,2.43
	c0.84,0.74,1.75,0.5,2.74,0.2c7.74-2.33,15.64-3.9,23.85-4.2c16.49-0.6,30.41,4.48,42.07,14.7c2.7,2.36,5.2,4.88,7.53,7.53
	c0.47,0.53,1.25,0.96,1.13,2.05c-22.75-7.2-44.83-6.66-66.7,4.78c29.08,0.76,47.47,13.31,56.17,37.85c-1.43-0.77-2.42-1.29-3.4-1.82
	c-10.19-5.54-20.65-10.54-32.39-13.05c-4.09-0.87-8.23-1.41-12.43-1.59c-1.25-0.05-2.74-0.17-3.17,1.09
	c-0.36,1.06,0.76,1.84,1.64,2.49c7.16,5.25,12.17,11.79,14.76,19.71c4.14,12.68,2.59,25.03-2.92,37.13
	c-0.09,0.19-0.3,0.33-0.62,0.67c-4.26-19.64-13.75-36.34-33.06-48.53c1.02,4.32,2.11,7.97,2.7,11.68c1,6.26,1.88,12.55,2.46,18.85
	c0.84,9.17,0.76,18.38,0.53,27.57c-0.28,11.45-1.42,22.84-3.31,34.17c-1.18,7.05-2.43,14.08-4.46,20.99
	c-0.58,1.97,0.26,2.83,3.25,3.41c8.67,1.69,17.21,3.79,25.67,6.18c2.61,0.74,5.21,1.53,8.29,2.45c-5.37,2.22-10.51,3.66-15.7,4.95
	c-19.02,4.72-38.36,6.81-58.09,5.23c-10.16-0.81-20.24-2.1-29.75-5.69c-0.78-0.49-1.86-0.8-1.45-1.98
	c13.25-2.52,24.17-8.47,32.96-17.57c11.59-12,18.39-26.1,22.74-41.23c6.28-21.81,7.69-43.87,3.97-66.16
	c-0.22-1.34-0.14-3.19-1.74-3.62c-1.54-0.42-2.22,1.39-3.11,2.29c-7.74,7.91-13.42,16.82-16.31,27.04
	c-0.16,0.55-0.41,1.08-0.69,1.81c-1.56-3.36-2.13-6.72-2.86-10.05C241.79,115.53,242.25,114.52,241.81,113.6z"/>
<path class="st3" d="M233.46,99.36c-0.22,2.05-0.22,4.11,0,6.16c0.43,0.86-0.14,1.84,0.38,2.69c0.38,5.76,2.86,10.94,5.62,16.03
	c0.71,1.31,1.63,2.53,2.36,3.83c0.73,1.29,1.72,2.13,3.44,2.02c1.82-0.12,1.79-1.5,2.1-2.57c1.68-5.89,3.82-11.62,7.23-16.91
	c0.52-0.8,0.88-1.72,2-2.37c1.1,5.41,2.09,10.72,2.23,16.13c0.52,20.5-1.58,40.66-10.12,59.96c-1.9,4.28-4.3,8.34-6.79,12.37
	c-1.52,2.46-3.48,3.4-6.68,3.5c-16.77,0.52-32.96,3.38-48.11,10.06c-0.96,0.42-2.01,0.76-2.81,1.35c-2.03,1.5-3.24,0.84-4.44-0.93
	c-1.74-2.56-1.88-5.23-1.12-8.02c1.89-6.92,6.22-12.48,12.3-17c1.29-0.96,1.49-1.47,0.06-2.36c-1.25-0.78-2.57-1.33-4.05-1.5
	c-14.28-1.7-27.68,0.43-39.93,7.37c-0.91,0.51-1.68,1.5-2.33-0.43c-13.31-38.99,1.1-82.09,41.85-106.34
	c2.83-1.69,5.88-3.09,8.78-4.61c0.56,0.59,0.25,0.89,0.05,1.19c-8.5,12.93-9.64,26.55-4.86,40.73c0.47,1.4,0.87,2.82,1.43,4.18
	c0.8,1.95,2.17,2.25,3.94,0.93c1.16-0.86,1.92-1.98,2.69-3.11c8.43-12.48,20.16-21.81,34.66-28.48c0.27-0.12,0.58-0.17,1.09-0.31
	c-0.37,1.34-0.67,2.53-0.56,3.75C233.31,97.53,233.89,98.51,233.46,99.36z"/>
<path class="st2" d="M486.72,146.68c5.66-3.75,12.08-5.09,19.01-4.46c3.51,0.32,6.51,2.6,6.87,5.64c0.32,2.71,1.44,1.61,2.77,0.89
	c0.57,0.68-0.15,1.04-0.37,1.35c1.78-1.61,3.87-3.08,6.74-3.3c1.27-0.1,2.52,0.01,3.3,1.03c0.81,1.07,0.7,2.21-0.01,3.3
	c-1.96,3.01-4.31,5.82-5.83,9.04c-1.51,3.19-3.07,6.37-3.93,9.77c-0.27,1.04-0.11,2.04,0.97,2.74c1.97,1.33,3.35,1.27,5.56-0.39
	c0.85-0.64,1.68-1.32,2.42-2.08l-0.07,0.07c1.51-0.9,1.93-2.4,2.64-3.73c0.58-0.58,0.41-1.32,0.52-2c0.21-0.42,0.07-0.95,0.51-1.3
	c0.25-0.13,0.83,0.26,0.77-0.39c1.79-2.74,2.48-5.99,4.96-8.4c4.42-5.56,9.5-10.21,17.82-10.66c1.45-0.08,2.78-0.74,4.29-0.87
	c3.5-0.3,6.63,0.56,9.67,1.93c1.72,2.24,1.72,4.93,0,7.16c-1.36-0.31-2.19-1.25-3.01-2.13c-1.47-1.57-3.18-1.76-5.26-1.11
	c-5.27,1.63-8.36,5.32-11.22,9.23c-0.88,1.2-1.49,2.56-2.37,3.77c-0.62,2.25-1.84,4.31-2.54,6.56c-0.84,2.65,0.55,5.8,3.49,6.62
	c4.07,1.13,7.55-0.19,10.87-2.11c4.54-2.62,7.07-6.38,8.37-11.02c0.84-3.01,2.61-5.77,4.09-8.59c1.55-2.03,3.01-4.1,4.38-6.23
	c0.3-0.45,0.73-0.81,0.98-1.29c3.62-4.76,7.6-9.23,12.96-12.58c2.03-1.26,4.2-2.21,6.72-2.42c1.32,0.01,2.64-0.1,3.96,0.09
	c0.38,0.11,0.67,0.31,0.87,0.62c0.29,0.73-0.07,1.26-0.69,1.71c-3.8,2.73-6.82,6.13-9.42,9.72c-3.12,4.3-6.79,8.34-8.54,13.38
	c-0.5,1.45-1.48,2.9-2.75,4.07c-0.17,0.16-0.3,0.35-0.46,0.51c0.21-0.1,0.37-0.28,0.63-0.33c0.75,0.08,1.38-0.03,1.69-0.75
	c0.46-0.62,1.07-1.02,1.93-1.03c0.53,0.11,0.92-0.08,1.28-0.43c1.91-1.88,4.08-3.54,5.76-5.6c3.5-2.76,7.33-5.11,11.34-7.23
	c0.95-0.5,2.13-0.76,3.31-0.74c1.45-0.01,2.9-0.01,4.35,0c4.73,0.6,7.05,5.17,4.32,9c-3.3,4.63-6.56,9.29-8.74,14.44
	c-0.77,1.81-1.98,3.77-0.07,5.67c1.76,1.67,2.55,1.7,4.82,0.63c1.88-0.88,2.71-2.67,4.37-3.71c2.07-2.2,3.61-4.62,3.98-7.07
	c-0.42,2.51-1.96,5-4.15,7.22c-0.36,0.14-0.68,0.09-0.95-0.17c1.72-2.36,3.23-4.78,3.94-7.59c0.51-2.03,1.66-3.89,3.05-5.59
	c1.72-0.87,2.5-2.47,3.51-3.82c4.21-5.56,9.97-8.9,17.36-10.12c1.85-0.31,3.67-0.67,5.57-0.78c4.63-0.25,7.92,2.1,8.5,6.13
	c1.11,7.75-6.54,15.66-17.09,13.92c-1.42-0.23-2.95-1.06-4.44-0.08c-1.69,2.29-2.47,4.8-2.26,7.53c-0.24,0.92-0.37,1.84,0.24,2.7
	c0.12,0.18,0.23,0.36,0.34,0.54c1.62,2.11,4.03,1.89,6.4,1.65c3.49-0.36,6.22-2.13,8.82-4.02c3.62-2.63,6.59-5.8,9.48-9.04
	c0.96-1.07,0.65-2.22,0.62-3.33c-0.09-3.41,1.35-6.2,4.08-8.53c1.12-0.95,2.25-1.85,3.59-0.23c0.01,0.02,0.11-0.26,0.26-0.36
	c0.39-0.26,0.74-0.23,1.09,0.05c-0.22,0.61-0.64,1.22-0.2,1.88c1.29,1.94,0.51,3.87-0.74,5.33c-2.53,2.97-1.7,5.87-0.4,8.83
	c1.13,2.56,2.47,5.06,3.72,7.58c0.37,0.98,1.14,1.9,0.51,3c-1.24,0.16-1.27-0.78-1.41-1.4c-0.17-0.78-0.44-1.54-0.82-2.29
	c2.27,3.78,2.06,7.86,1.94,11.91c-0.11,3.65-3.46,8.99-8.24,9.79c-3.38,0.56-6.62,1.03-9.92,0.18c-4.75-1.22-7.5-4.67-7.52-9.12
	c0-0.73,0.04-1.46-0.08-2.18c-0.17-0.57-0.6-0.87-1.24-0.97c-3.61,1.07-7.35,1.66-11.03,2.47c-2.94,0.65-5.66-0.13-8.39-0.78
	c-2.98-0.71-4.9-2.46-5.57-5.2c-0.1-0.42-0.54-0.72-0.86-1.04c-0.27-0.34-0.43-0.76-0.93-0.92c-1.33,0-2.02,0.83-2.71,1.64
	c-2.78,3.27-6.51,4.84-11,5.82c-2.6,0.57-4.72,0.35-7.04-0.27c-2.06-0.55-3.11-2.14-3.56-3.96c-0.78-3.14,0.04-6.19,0.04-9.28
	c0-1.37,1.02-2.45,1.04-3.78c1.23-3.13,2.5-6.25,4.53-9.07c0.45-0.62,0.68-1.3,0.57-2.04c-0.22-0.38-0.42-0.76-0.91-0.94
	c-2.33,0.65-3.49,2.5-5.05,3.89c-3.98,3.53-7.25,7.61-10.72,11.52c-1.31,1.48-2.24,3.19-3.07,4.93c-0.2,0.38-0.16,0.82-0.41,1.18
	l0.02-0.03c-0.34,0.26-0.55,0.62-0.94,0.84c-1.83,1.99-2.82,4.37-3.65,6.76c-0.53,1.53-1.44,2.53-3.12,3.03
	c-2.67,0.28-4.26-0.99-5.36-2.95c-0.15-1.56-0.07-3.1-0.04-4.65c0.02,1.64-0.37,3.27,0.28,4.9c0.22,0.36,0.18,0.68-0.16,0.96
	c-1.23-1.53-1.47-3.28-1.42-5.08c0.02-0.75,0.13-1.45-0.97-1.64c-1.17-0.56-1.58,0.51-2.1,0.93c-2.45,1.96-5.4,2.82-8.46,3.76
	c-2.67,0.82-5.43,0.79-8.1,1.49c-4.01,1.04-9.83-1.77-11.8-5.21c-0.16-0.28-0.44-0.42-0.7-0.59c-0.17-0.12-0.35-0.24-0.52-0.36
	c-0.61-0.94-1.2-0.59-1.82,0c-0.75,0.71-1.47,1.46-2.51,1.88c-0.6-1.61,1.4-1.8,1.87-2.87c-2.59,3.37-6.22,5.1-10.75,5.3
	c-6.15,0.28-8.29-1.28-9.18-6.66c-0.22-1.33-0.47-2.45-2.41-1.43c-2.36,2.2-4.26,4.76-6.9,6.74c-4.64,3.49-13.38,4.45-18.77,1.98
	c-2.63-1.21-4.03-3.28-5.04-5.62c-0.69-0.32-1.38-0.26-2.08-0.03c-3.85,2.27-7.29,5.14-12.12,5.9c-4.49,0.7-8.91,1.7-13.47,0.26
	c-1.61-0.51-2.98-1.15-3.98-2.39c-0.26-0.32-0.46-1.13-1.21-0.39c-2.8-3.56-2.98-7.62-2.09-11.6c0.56-2.47,0.6-5.22,2.54-7.36
	c0.1,0.07,0.2,0.14,0.3,0.21c-0.04,1.76-0.68,3.39-1.33,5.01c-0.19,0.46-0.16,0.93-0.09,1.4c0.05,0.29,0.56-0.06,0.24,0
	c-0.2,0.04-0.29-0.07-0.28-0.23c0.02-0.41-0.07-0.84,0.19-1.23c0.68-1.75,1.15-3.54,1.87-5.28c0.98-2.38,2.18-4.65,3.62-6.83
	c2.79-4.07,6.58-7.19,11.24-9.56c0.96-0.49,1.97-0.68,2.95-1.04c2.82-1.03,5.91-1.03,8.81-1.82c2.53-0.68,5.01,0.31,7.26,1.33
	c1.21,0.55,2.28,1.61,2.41,2.9c0.41,4.01,0.57,7.87-3.09,11.19c-2.38,2.16-4.91,3.51-8.17,3.97c-0.87,0.1-1.74,0.24-2.6,0.41
	c-2.26,0.28-4.31-0.71-5.93-0.81c4.18,1.57,8.77,0.57,13.34-0.72c0.25,0.05,0.44,0.18,0.58,0.37c-0.07,1.39-1.31,1.76-2.46,2.13
	c-3.01,0.98-6.11,1.07-9.25,0.62c-3.11-0.44-3.48-0.24-4.26,2.49c-0.12,0.42-0.28,0.84-0.35,1.27c-0.76,4.42,1.14,5.97,6.11,5.04
	c1.48-0.28,2.88-1.24,4.5-0.5c0.54,0.52,0.27,1.05-0.25,1.28c-2.74,1.21-5.61,2.08-8.72,1.36c-2.89-0.67-4.14-2.21-4.25-4.91
	c-0.05-1.29,0.25-2.53,0.48-3.49c-0.04,0.43-0.32,1.12-0.42,1.85c-0.67,4.85,2.82,7.66,8.22,6.7c5.24-0.93,8.65-4.18,12.11-7.37
	c0.8-0.74,0.48-1.82,0.87-2.7c1.4-2.13,2.5-4.4,3.8-6.57c4.15-6.94,9.94-12.2,18.64-14.49c3.54-0.93,7.15-1.5,10.89-1.22
	c1.12,0.08,1.98,0.67,3.2,0.95c-3.53-1.32-6.91-1.15-10.39-0.48c-3.54,0.68-6.97,1.52-10.05,3.28
	C487.58,147.18,487.08,147.08,486.72,146.68z"/>
<path class="st2" d="M333.69,244.45c-8.84,11.15-20.02,20.09-33.06,27.2c-19.23,10.47-40.19,16.82-62.37,20.1
	c-25.4,3.76-50.67,2.91-75.71-2.29c-15.01-3.12-28.76-8.71-40.53-17.71c-10.17-7.77-17.23-17.31-19.08-29.27
	c-2.53-16.39,4.22-29.27,19.68-38.52c3.42-2.04,7.16-3.57,11.06-4.76c0.75-0.23,1.47-0.7,2.47-0.12c-2.93,4.31-5.46,8.8-6.91,13.68
	c-4.78,15.99,0.91,29.21,14.1,40.15c12.04,9.98,26.6,16.02,42.4,19.65c39.97,9.17,78.72,6.14,116.05-9.73
	c11.5-4.89,21.71-11.5,31.27-18.94C333.59,243.78,333.8,243.97,333.69,244.45z"/>
<path class="st4" d="M310.92,94.99c7.45,6.9,13.68,14.55,18.47,23.12c0.27,0.48,0.57,0.94,0.16,1.42c-1.73,2.02-2.33,4.52-3.77,6.69
	c-2.4,3.62-2.58,7.85-3.45,11.85c-1.02,4.67-1.04,9.46,0,14.13c0.95,4.27,1.75,8.55,4.4,12.47c2.73,4.05,6.11,7.28,10.66,9.6
	c1.44,0.73,1.42,1.73,1.16,2.95c-2.39,11.22-6.78,21.75-13.52,31.5c-0.9,1.31-1.91,2.56-2.68,3.93c-0.84,1.48-1.88,1.71-3.6,1.16
	c-12.13-3.94-24.57-6.98-37.17-9.47c-2.34-0.46-2.68-1.31-2.22-3.1c2.36-9.2,3.55-18.54,4.51-27.92c2.03-19.9,2.16-39.79-0.77-59.65
	c-0.03-0.21,0-0.42,0-0.81c2.9,1.8,4.83,4.26,7.02,6.45c7.91,7.88,13.71,16.83,16.82,27.06c0.6,1.96,1.68,3.54,3.55,5.3
	c-0.41-3.17,1.77-5.11,2.79-7.44c5.86-13.46,7.14-27.03,1.62-40.83c-1.19-2.97-2.88-5.72-4.73-8.4
	C310.42,94.82,310.67,94.82,310.92,94.99z"/>
<path class="st2" d="M333.25,217.39c-1.67,3.28-3.93,6.18-6.29,9.03c-10.97,13.25-25.9,21.49-43.17,26.71
	c-21.21,6.41-43.02,8.05-65.24,6.25c-15.93-1.29-31.3-4.41-45.59-11.04c-7.21-3.35-13.89-7.34-18.89-13.12
	c-7.55-8.73-8.9-18.26-3.99-28.42c1.45-3,3.59-5.57,6.46-7.62c5.42-3.87,11.63-6.17,18.96-7.52c-1.08,1.27-1.85,2.16-2.61,3.06
	c-7.88,9.47-7.12,19.72,2.25,28.08c8.1,7.22,18.15,11.5,29.03,14.26c32.76,8.31,65.29,7.93,97.34-2.78
	c10.93-3.65,20.7-9.2,29.54-15.99c0.49-0.38,1.02-0.72,1.55-1.04C332.69,217.19,332.9,217.3,333.25,217.39z"/>
<path class="st2" d="M407.52,173.33c0.53-1.02,1.05-2.05,1.58-3.07c0.1,0.06,0.21,0.11,0.31,0.17c0.75,0.96-0.48,1.55-0.52,2.28
	c-0.18,0.34-0.4-0.05-0.14,0.13c0.08,0.05,0.16,0.01,0.21-0.12c0.81-2.17,2.02-4.26,2.38-6.5c0.49-3.03,0.28-6.08-2.18-8.59
	c-0.16-0.16-0.29-0.33-0.39-0.52c-1.71-3.1-5.11-3.85-8.4-4.72c-2.4-0.63-4.88-0.51-7.35-0.4c-0.41,0.02-0.81,0.13-1.22,0.09
	c-0.85-0.09-1.71-0.29-1.89-1.14c-0.16-0.75,0.52-1.23,1.18-1.52c2.08-0.89,3.99-2,5.87-3.17c1.32-0.82,2.56-1.72,3.31-2.71
	c-1.16,0.67-1.6,2.68-3.93,2.26c7.08-5.67,8.79-12.57,5.91-20.5c-0.31-0.76-0.17-1.67-0.98-2.25l0.01,0.02
	c-0.23-0.59-0.53-1.16-0.63-1.79c0.02-2.41-2.09-3.62-3.68-5.11c-3.58-3.37-7.77-5.84-12.86-7.09c-1.23-0.3-2.42-0.21-3.63-0.28
	c-2.73,0-5.46,0-8.19,0c-4.89-0.16-8.86,2.02-12.92,3.98c-5.02,2.43-8.57,6.23-11.86,10.2c-1.36,1.65-1.99,3.76-3.24,5.53
	c-0.06,1.47-1.11,2.78-1,4.07c-0.05-1.3,0.89-2.66,1.03-4.14c0.6-0.49,0.52-1.61,1.76-1.5c0.26,0.33,0.23,0.63-0.1,0.91
	c-3.08,7.7-3.49,15.32,0.76,22.84c0.68,1.21,1.76,2.08,2.81,3c-0.29,0.36-0.68,0.42-1.11,0.31c-0.1-0.04-0.2-0.09-0.28-0.14
	c0.1,0.07,0.2,0.13,0.33,0.2c1.7,0.57,3.35,1.22,5.21,1.21c1.56-0.01,2.54,0.86,2.76,2.08c0.39,2.15,0.53,4.38-0.48,6.44
	c-0.81,1.64-2.17,2.97-4.3,3.29c-4.36,0.66-8.47,0.19-12.12-2.27c-2.51-1.69-3.1-4.35-4.38-6.33c0.12,1.26,2.11,2.34,1.41,4.13
	c-1.83-1.23-2.2-3.22-2.99-4.92c-3.22-6.95-3.68-14.12-1.39-21.37c0.44-1.38,0.24-2.95,1.43-4.12c0.92-0.08,1.06-0.7,1.32-1.34
	c2.73-6.8,7.3-12.5,13.51-17.1c2.93-2.17,6.03-4.23,9.52-5.71c4.03-2.05,8.52-2.9,12.94-3.9c1.51-0.34,3.1-0.09,4.66-0.13
	c0.63,0,1.26,0,1.89,0c1.17,0.11,2.2-0.27,3.2-0.74c0.52-0.1,1.04-0.09,1.55,0.05c1.63,0.97,3.49,0.62,5.27,0.69
	c9.52,0.05,18.29,2.4,26.24,6.97c3.8,2.18,6.28,5.45,7.73,9.28c2.06,8.03-1.26,15.88-8.63,20.64c-0.95,0.62-2.37,0.99-2.54,2.33
	c-0.21,0.64-1.33,0.62-1.35,1.57c4.2,1.3,8.97,1.17,12.76,3.63c-0.52,0.6-1.13,0.44-1.76,0.19c-2.48-0.97-5.08-1.54-7.39-1.85
	c2.74,0.25,5.59,1.28,8.48,2.25c4.6,1.56,7.71,5.27,7.72,9.62c0,3.78,0.3,7.59-1.03,11.27c-3.75,9.08-11.45,14.96-20.32,19.98
	c-8.21,4.64-17.36,6.98-26.66,8.99c-1.38,0.3-2.78,0.09-4.17,0.2c-2.39,0.94-4.93,1.1-7.43,0.76c-2.17-0.29-3.95-1.36-5.09-3.12
	c-0.16-0.19-0.28-0.4-0.37-0.62c-0.16-0.72-0.13-1.45-0.09-2.18c0.06-1.24,0.82-1.87,2.2-1.87c5.25,0,10.36-0.86,15.37-2.17
	c7.62-2,14.62-5.07,20.71-9.67c1.87-1.41,3.78-2.78,5.14-4.66C407.5,174.81,407.9,174.17,407.52,173.33z"/>
<path class="st2" d="M381.09,129.18c-0.59,1.49-0.69,3.15-1.93,4.42c-1.45,1.41-1.8,3.31-2.09,5c-0.57,3.34-1.48,6.64-2,9.99
	c-0.43,2.75,0.23,5.82-1.55,8.43c-0.32,0.47-0.11,1.15-0.11,1.73c0,3.64,0.01,7.29-0.01,10.93c-0.02,3.95,1.46,7.32,4.72,10.07
	c0.88,0.74,2.03,1.57,1.23,2.79c-0.79,1.2-1.98,1.59-3.75,1.35c-3.61-0.49-5-3.02-6.86-5.18c-0.18-0.16-0.32-0.34-0.44-0.55
	c-1.47-2.9-1.97-6.04-2.92-9.07c-0.71-2.25-0.49-4.58-1.37-6.74c-0.33-0.21-0.83-0.23-0.95-0.67c-0.97-6.02-0.89-12.1-0.36-18.09
	c0.57-6.55,1.65-13.13,3.97-19.45c0.46-0.87,0.63-1.8,0.63-2.76c0.14-0.68,0.84-1.13,0.99-1.81c1.44-2.38,4.38-3.36,7.37-2.21
	c1.19,0.46,2.44,0.79,3.61,1.31c3.2,1.42,4.16,3.55,2.63,6.4c-0.77,1.44-1.42,2.91-2.09,4.45c0.43-0.5,0.21-1.42,1.31-1.3
	C381.38,128.56,381.32,128.87,381.09,129.18z"/>
<path class="st5" d="M207.22,223.94c0.48,0.66,0.97,1.32,1.45,1.98c-5.03-1.62-9.64-3.92-14.02-6.63c-1.51-0.93-1.36-1.42,0.17-2.2
	c8.39-4.26,17.43-6.69,26.97-7.76c2.64-0.3,5.29-0.6,8.44-0.52c-3.25,3.06-6.62,5.34-10.13,7.42c-4.1,2.42-8.34,4.65-12.51,6.97
	C207.3,223.36,206.37,223.32,207.22,223.94z"/>
<path class="st4" d="M471.97,127.48c-5.01,0.04-10.01,0.07-15.02,0.15c-1.34,0.02-1.68-0.55-1.68-1.62c0.03-5.4,0.05-10.8,0-16.2
	c-0.01-1.36,0.59-1.78,2.05-1.76c4.19,0.05,8.4,0.14,12.58-0.03c2.37-0.09,3.4,0.52,3,2.66c-0.12,0.62,0.26,1.32-0.39,1.86
	c-3.84,0.44-7.7,0.06-11.55,0.2c-0.68,0.03-2.07-0.46-1.22,1.04c0.53,0.08,0.81,0.36,0.88,0.83c0.38,0.97,1.3,0.97,2.22,0.97
	c2.04,0,4.09,0.01,6.13,0c2.72-0.02,2.72-0.02,2.72,2.32c0,0.36,0.01,0.73-0.06,1.08c-0.75,0.89-1.86,0.72-2.88,0.75
	c-2.9,0.07-5.81-0.1-8.71,0.1c-0.59,0.23-0.99,0.64-0.47,1.12c0.81,0.74,1.22,1.85,2.5,2.15c1.95,0.31,3.92,0.12,5.88,0.14
	c4.05,0.04,4.05,0.02,4.29,3.6C472.23,127.08,472.13,127.29,471.97,127.48z"/>
<path class="st3" d="M590.5,122.72c4.16,0,7.76,0.08,11.36-0.03c2.72-0.08,1.9,1.6,2.03,2.85c0.15,1.37-0.14,2.17-2.09,2.11
	c-4.44-0.13-8.89-0.1-13.33-0.02c-1.67,0.03-2.11-0.51-2.09-1.91c0.07-5.25,0.12-10.51-0.02-15.76c-0.06-2.13,1.35-1.92,2.87-1.9
	c1.45,0.02,3.02-0.37,2.91,1.82c-0.16,3.13-0.1,6.28-0.02,9.41C592.16,120.54,591.59,121.51,590.5,122.72z"/>
<path class="st4" d="M480.31,122.19c0.4,0.67,0.44,1.39,0.47,2.12c0.13,3.34-0.88,4.05-4.64,3.33c-0.96-0.18-1.14-0.69-1.14-1.41
	c0.01-5.54,0.01-11.09,0.01-16.63c0-0.69,0.04-1.49,1.02-1.46c4.89,0.17,9.87-0.87,14.63,0.89c0.19,0.22,0.17,0.42-0.08,0.59
	c-1.3,0.07-2.6,0.11-3.85-0.29c-3.2,0.05-6.48-0.72-9.56,0.67c-0.57,0.28-0.74,0.74-0.74,1.28c-0.05,4.35-0.07,8.7,0.22,13.04
	c0.06,0.84-0.29,2.12,1.56,1.79c1.34-0.82,0.92-1.9,0.56-2.97c-0.32-0.72-1.26-0.78-1.78-1.3c-0.16-0.18-0.27-0.38-0.33-0.6
	c-0.51-1.85-0.22-3.73-0.27-5.6c-0.02-0.64-0.07-1.38,0.86-1.6c0.94-0.22,1.58,0.34,2,0.95c0.55,0.8,0.96,1.68,2.13,1.93
	c2.03,0.35,4.07,0.14,6.1,0.16c2.41-0.51,2.65-1.14,1.42-2.93c-1.16-1.68-2.78-2.38-4.92-2.31c-1.89,0.06-3.78-0.1-5.67,0.11
	c-0.69,0.08-1.41,0.08-1.59-0.66c-0.19-0.79,0.49-1.16,1.17-1.47c0.3-0.14,0.63-0.18,0.96-0.16c3.26,0.24,6.5-0.48,9.77-0.09
	c1.88,0.22,2.92,0.9,3.16,2.71c0.29,2.25,0.43,4.49,0.41,6.75c-0.01,1.28-0.21,2.36-1.67,3.15c-1.36,0.74-0.95,2.14-0.49,3.17
	c0.4,0.89,1.35,0.72,1.88-0.09c0.34-0.51,0.24-1.14,0.23-1.72c-0.04-3.71,0.31-7.43-0.36-11.13c-0.12-0.64-0.48-1.51,0.77-1.74
	c1.17,1.34,1.27,2.97,1.32,4.52c0.12,3.57-0.03,7.14,0.07,10.71c0.04,1.35-0.44,1.73-1.95,1.74c-4.49,0.02-4.49,0.08-4.5-3.83
	c-0.01-2.77-0.01-2.78-3.17-2.77c-1.48,0-2.96-0.07-4.42,0.1c-1.1-0.41-0.85-0.71,0.1-0.96c0.15-0.04,0.33-0.02,0.49-0.02
	c1.38,0,2.76,0,3.83,0c-1.47,0.17-3.28-0.29-5.03,0.22C479.08,121.25,480.18,121.5,480.31,122.19z"/>
<path class="st6" d="M303.5,132.32c-1.99-2.78-3.62-5.3-5.53-7.64c-4.17-5.15-8.68-10.03-14.13-14.21
	c-2.51-1.93-2.08-4.94-2.44-7.55c-0.16-1.16,0.94-0.59,1.47-0.14c5.38,4.44,10.19,9.3,13.94,14.94c2.6,3.91,4.58,8.06,6.4,12.29
	C303.47,130.6,303.9,131.18,303.5,132.32z"/>
<path class="st6" d="M240.14,119.29c-1.48-1.32-1.62-2.59-2.04-3.69c-2.91-7.5-2.87-15.13-1.23-22.84c0.29-1.35,1.59-1.65,2.7-1.96
	c1.51-0.43,3.28-1.96,4.46-1.02c0.99,0.79-0.49,2.5-0.99,3.74c-2.2,5.46-3.32,11.12-3.65,16.86
	C239.22,113.15,239.82,115.94,240.14,119.29z"/>
<path class="st4" d="M527.82,114.63c0.89,0.57,0.69,1.44,0.7,2.2c0.05,2.99-0.03,5.97,0.05,8.96c0.04,1.43-0.53,2.05-2.16,1.84
	c-0.4-0.05-0.83-0.07-1.23-0.01c-2.15,0.32-2.91-0.39-2.8-2.37c0.18-3.2-0.09-6.41,0.1-9.61c0.12-2.07-0.55-3.03-2.98-2.69
	c-2.17,0.3-3.04-0.36-3-2.49c0.04-1.97,0.74-2.49,2.86-2.43c4.27,0.13,8.54,0.12,12.81,0c2.47-0.07,1.97,1.35,2.05,2.62
	c0.09,1.38,0.01,2.52-2.12,2.32c-1.06-0.1-2.15,0.07-3.2-0.04c-2.12-0.23-1.83,0.61-1.07,1.73c-0.98,0.67-0.5,1.62-0.57,2.45
	c-0.26,3.03,0.48,6.1-0.41,9.1c-3.04,0.19-3.05,0.19-3.05-2.4c-0.01-2.39,0-4.78,0-7.17c0,2.39,0,4.78,0,7.18
	c0.01,2.5,0.01,2.5,2.81,2.46c0.95-0.47,0.62-1.28,0.63-1.96c0.04-2.48,0-4.95,0.03-7.43C527.28,116.12,527.03,115.27,527.82,114.63
	z"/>
<path class="st7" d="M449.87,109.85c0.28,0.17,0.55,0.33,0.83,0.5c0.26,0.29,0.44,0.69,0.43,1c-0.08,4.66,2.82,9.21,0.62,13.94
	l0.04-0.03c-1.54,1.71-3.81,1.99-6,2.1c-3.85,0.2-7.71-0.02-11.57,0.1c-1.27,0.04-1.55-0.54-1.55-1.46c0-5.46,0.01-10.92-0.01-16.38
	c0-0.94,0.38-1.28,1.44-1.27c4.1,0.03,8.21-0.01,12.31,0.03C447.79,108.38,448.89,109.03,449.87,109.85z"/>
<path class="st4" d="M549.48,113.83c0.33,0.31,0.66,0.63,0.99,0.94c0.37,0.48,0.85,0.84,1.44,1.09c2.05,0.7,4.2,0.24,6.29,0.4
	c2.37,0.18,2.95,1.26,1.72,3.18c-1.91,0.58-3.89,0.19-5.83,0.3c-0.89,0.05-1.8-0.11-2.65,0.26c-1.28,0.8-0.51,1.98-0.71,2.98
	c-0.3,1.5,0.69,3.16-0.74,4.51c-1.29-0.26-2.76,0.36-3.88-0.67c-0.71-3.82-0.24-7.66-0.28-11.49c-0.02-1.99-0.52-4.05,0.46-6
	c0.31-0.25,0.66-0.45,1.08-0.45c4.45-0.01,8.91-0.42,13.34,0.22c0.41,0.24,0.62,0.6,0.68,1.02c-0.03,1.48-1.12,1.75-2.49,1.74
	c-2.29-0.01-4.58-0.01-6.87,0c-0.89,0-1.81-0.08-2.6,0.4C548.63,112.8,548.78,113.32,549.48,113.83z"/>
<path class="st8" d="M629.5,162.45c0.71-1.09,1.73-0.79,2.81-0.58c4.54,0.88,8.97,0.88,12.99-1.61c4.01-2.48,6.6-8.62,5.32-12.62
	c-0.67-2.1-3.54-4.08-6.46-3.98c-5.34,0.19-10.53,1.05-15.24,3.51c-4.68,2.44-7.84,6.08-10.55,10.13c-0.31,0.46-0.44,1.36-1.41,1.23
	c-0.17-0.02-0.23-0.64-0.34-0.98c5.96-10.35,15.52-15.25,27.34-15.47c4.96-0.09,8.34,2.96,8.57,7.38c0.25,4.85-1.89,8.76-6.29,11.67
	c-4.19,2.2-8.62,3.16-13.41,1.85C631.73,162.7,630.53,162.98,629.5,162.45z"/>
<path class="st3" d="M566.61,125.71c-0.29-0.37-0.58-0.75-0.88-1.12c-1.39-5.03-0.39-10.14-0.68-15.21c-0.04-0.75,0.4-1.04,1.2-1.02
	c0.57,0.01,1.16,0.07,1.72-0.01c1.99-0.3,2.41,0.45,2.31,2.13c-0.18,2.98,0.02,5.97-0.08,8.95c-0.05,1.62,0.52,2.83,2.07,3.67
	c0.15,0.43-0.08,0.71-0.43,0.96c-2.41-0.11-3.96-1.67-4.06-4.25c-0.1-2.58-0.01-5.17-0.03-7.76c0.01,3.06-0.04,6.13,0.02,9.19
	c0.05,2.73,1.16,3.79,4.19,3.67c2.14-0.09,4.27-0.06,6.4-0.12c1.69-0.05,2.58-0.72,2.48-2.32c-0.18-2.83-0.37-5.67-0.24-8.02
	c0.08,1.61-0.13,3.71,0.08,5.81c0.07,0.67-0.06,1.32-0.84,1.69c-0.78,0.2-1.26-0.28-1.8-0.61l0.03,0.02
	c-0.4-3.94-0.17-7.89-0.12-11.83c0.9-1.23,2.28-1.07,3.53-0.76c1.4,0.35,1.32,1.52,1.32,2.54c0.02,4.36,0.02,8.73,0,13.09
	c0,1.04-0.08,2.05-1.17,2.72c-3.16,0.2-6.33,0.09-9.5,0.07C570.17,127.16,568.33,126.56,566.61,125.71z"/>
<path class="st9" d="M368.71,178.23c1.13,0.2,1.44,1.12,2,1.8c1.35,1.64,3.04,2.78,5.34,3.24c1.29,0.26,2.15-0.24,2.73-1.02
	c0.59-0.79-0.33-1.35-0.92-1.8c-3.86-2.97-5.32-6.79-5.22-11.2c0.04-1.75,0.06-3.5,0-5.24c-0.19-5.07,0.61-10.04,1.88-14.97
	c0.49-1.9-0.24-3.93,0.49-5.85c1.25-3.25,1.46-6.75,3.06-9.91c0.14-0.28,0.04-0.88,0.69-0.46c0.22,0.14,0.27,0.51,0.39,0.77
	c0,0,0.01-0.04,0.01-0.04c-0.76,1.63-0.84,3.44-1.66,5.06c-0.5,1-0.32,2.1-0.55,3.14c-1.13,2.92-0.88,6.03-1.52,9.02
	c-0.89,4.21-1.22,8.47-1.08,12.76c-0.43,2.32-0.23,4.65-0.13,6.98c-0.11,2.23,0.95,4.21,1.72,6.25c0.46,1.22,1.31,2.18,2.85,2.45
	c0.49,0.22,0.97,0.45,1.24,0.91c0.37,1.16,0.11,2.24-0.48,3.28c-0.39,0.54-0.56,1.27-1.47,1.39c-1.58,0.56-3.02-0.05-4.5-0.41
	c-2.2-1.15-3.81-2.78-4.93-4.8C368.4,179.14,368.31,178.68,368.71,178.23z"/>
<path class="st10" d="M536.31,117.7c0-2.62,0.06-5.24-0.02-7.86c-0.04-1.34,0.54-1.87,2.02-1.76c0.81,0.06,1.64,0.03,2.46,0
	c1.28-0.04,1.71,0.5,1.7,1.6c-0.03,5.38-0.05,10.77,0.01,16.15c0.01,1.33-0.53,1.88-2.02,1.76c-0.73-0.06-1.48-0.06-2.21,0
	c-1.55,0.12-1.98-0.55-1.95-1.82C536.36,123.09,536.31,120.39,536.31,117.7z"/>
<path class="st11" d="M568.26,153.26c-2.06,4.85-3.7,9.88-6.29,14.49c-2.51,4.46-10.91,9.78-17.04,8.19c-3.84-1-5.76-4.55-4.68-7.97
	c0.71-2.24,1.65-4.34,2.81-6.4c0.09,0.08,0.18,0.17,0.28,0.25c0.23,2.53-1.53,4.66-1.82,7.12c-0.2,1.7-0.04,3.12,1.19,4.42
	c4.63,2.47,8.71,0.81,12.62-1.43c3.55-2.04,6.09-4.79,6.97-8.59c0.8-3.46,2.65-6.55,4.45-9.66c0.66-0.13,0.66-1.14,1.57-0.93
	C568.48,152.95,568.47,153.11,568.26,153.26z"/>
<path class="st12" d="M464.04,162.02c7.42-1,12.33-7.58,10.79-14.66c-0.4-1.86-4.27-3.91-7.43-3.69
	c-10.16,0.7-18.68,4.1-24.11,12.22c-0.24,0.17-0.45,0.16-0.66-0.05c-0.18-0.46-0.14-0.9,0.12-1.32l-0.01,0.03
	c0.93-0.57,1.45-1.41,1.95-2.27l-0.05,0.06c0.89-0.85,1.91-1.59,2.58-2.61l-0.02,0.01c1.17-0.56,1.92-1.57,3.01-2.22
	c1.1-0.9,2.31-1.64,3.67-2.21c2.96-0.82,5.77-2.02,8.87-2.48c3.52-0.53,7-0.9,10.31,0.75c3.13,1.5,3.4,4.16,3.55,6.87
	c0.08,1.54-0.5,2.99-0.77,4.48c-0.68,1.56-1.46,3.08-2.73,4.36c-0.22,0.35-0.48,0.69-0.85,0.94c-1.02,0.57-1.96,1.3-3.27,1.33
	c-4.96,2.29-10.07,1.95-15.34,0.56c1.24-1.1,2.56-0.13,3.78-0.08c1.38,0.06,2.76,0.28,4.13,0.42
	C462.3,161.93,463.3,162.55,464.04,162.02z"/>
<path class="st13" d="M421.06,120.4c-1.44-1.89-2.38-4.01-4.03-5.83c-3.73-4.12-8.97-5.94-14.25-7.58
	c-4.91-1.52-10.01-2.58-15.31-2.36c-1.71-0.77-3.74-0.01-5.43-0.87c-0.49,0-0.99,0-1.48,0c-0.64,0.44-1.39,0.43-2.13,0.43
	c-0.96,0-1.93,0-2.81,0.44c-5.47-0.06-10.57,1.3-15.51,3.24c-0.74,0.29-1.39,0.78-2.27,0.71c-0.45,0.2-0.62-0.05-0.76-0.36
	c0-0.21,0.07-0.41,0.22-0.58l-0.03,0.01c2.96-1.03,5.9-2.13,8.84-3.22c0.23-0.1,0.47-0.17,0.72-0.21c1.43-0.05,2.78-0.43,4.13-0.81
	c0.27-0.06,0.55-0.09,0.83-0.09c6.77-0.81,13.53-0.51,20.29,0.01c0.7,0.05,1.37,0.26,2.08,0.22c4.16,0.84,8.34,1.63,12.3,3.09
	c0.68,0.25,1.33,0.53,1.87,0.98c0.29,0.03,0.58,0.07,0.86,0.1c0.56,0.41,1.31,0.5,1.88,0.91c3.21,1.63,6.19,3.49,8.04,6.46
	c0.59,0.93,0.92,2.01,1.94,2.69l0.01,0.01c0.31,0.77,0.56,1.54,0.29,2.36C421.25,120.23,421.16,120.32,421.06,120.4z"/>
<path class="st14" d="M376.61,198.38c5.81-0.12,11.16-1.93,16.62-3.41c9.94-2.7,18.24-7.78,25.74-13.94
	c3.7-3.04,5.83-7.13,8.02-11.12c0.25-0.15,0.47-0.12,0.66,0.1c0.05,1.29-0.89,2.34-1.08,3.57c-4.91,8.74-13.32,14.17-22.63,18.73
	c-1.12,0.28-2.26,0.54-3.08,1.36l0.05-0.03c-3.8,1.3-7.49,2.84-11.45,3.76c-4.17,0.98-8.3,2.15-12.67,2.24
	C375.89,199.31,375.77,198.9,376.61,198.38z"/>
<path class="st15" d="M662.69,149.78c-1.64,0.25-0.81,1.53-1.23,2.34c-0.62-0.18-0.32-0.66-0.35-0.97
	c-0.15-1.63-1.11-1.69-2.28-0.84c-2.16,1.57-4.26,3.78-3.95,6.05c0.79,5.68-3.44,8.81-6.98,12.23c-2.75,2.66-5.91,5.07-9.74,6.56
	c-2.3,0.9-4.74,1.11-7.22,0.79c-1.69-0.22-2.84-1.07-3.41-2.51c0.51-0.35,0.91-0.22,1.22,0.24c2.87,1.88,5.95,1.17,8.88,0.35
	c2.15-0.6,4.09-1.77,5.68-3.26c2.58-2.42,5.4-4.63,7.73-7.27c1.02-1.15,1.56-2.25,1.53-3.74c-0.1-4.07,1.77-7.45,4.99-10.29
	c1.1-0.97,2.38-1.62,3.94-1.45C662.57,148.11,663.78,148.41,662.69,149.78z"/>
<path class="st16" d="M497.6,125.67c-2.2-0.87-2.33-2.76-2.41-4.43c-0.17-3.86-0.04-7.72-0.08-11.59c-0.01-1.37,0.64-2.05,2.2-1.99
	c0.16,0.01,0.33,0,0.49,0c4.73-0.11,4.73-0.11,4.73,4.11c0,2.7-0.01,5.39,0.01,8.09c0.01,0.86-0.18,1.93,1.1,2.16
	c1.52,0.28,3.1,0.28,4.63-0.01c0.41-0.08,0.21-0.47,0.15-0.75c-0.9-3.82-0.19-7.69-0.42-11.53c-0.09-1.49,0.68-2.17,2.35-2.07
	c0.16,0.01,0.33,0,0.49,0c4.14-0.06,4.14-0.06,4.14,3.66c0,4.81-0.05,9.62,0.03,14.43c0.03,1.58-0.54,2.24-2.4,2.19
	c-3.37-0.09-6.74,0.03-10.1-0.07c-1.5-0.04-3.2,0.01-3.95-1.61c0.44-0.51,0.98-0.31,1.51-0.16c3.83,1.21,7.79,0.57,11.69,0.55
	c1.27,0,1.84-0.89,1.86-1.95c0.07-4.65,0.12-9.31-0.02-13.96c-0.05-1.77-0.95-2.09-3.25-1.45c-0.16,0.18-0.3,0.37-0.41,0.58
	c-0.36,3.65-0.44,7.29,0.07,10.94c0.09,0.24,0.16,0.49,0.21,0.74c0.44,1.4-0.27,2.06-1.8,2.11c-1.62,0.05-3.24,0.06-4.86-0.01
	c-0.61-0.04-1.14-0.22-1.55-0.64c-0.98-1.15-1.25-2.46-1.22-3.89c0.06-2.54,0.05-5.08,0.01-7.62c-0.05-2.63-1.08-3.18-3.83-2.09
	c-0.25,0.3-0.51,0.62-0.5,0.99c0.1,4.7-1,9.47,1.2,14.03C497.91,124.85,497.9,125.27,497.6,125.67z"/>
<path class="st12" d="M601.35,174.28c-1.71-1.18-1.96-2.99-0.79-5.86c2.13-5.26,5.54-9.94,8.79-14.66c2.52-3.66,1.56-6.99-3.06-8.4
	c-1.65-0.36-3.29-0.36-4.94,0c-5.53,1.35-9.53,4.83-13.83,7.89c-0.45,0.15-0.63-0.09-0.75-0.42c0.12-1.22,1.71-1.32,2.2-2.26
	l-0.02,0.02c0.98-0.44,1.65-1.2,2.49-1.79l-0.04,0.03c1.25-0.62,2.57-1.15,3.52-2.16l-0.01,0c0.64-0.34,1.5-0.33,1.94-0.96
	l-0.07,0.01c1.58-0.54,3-1.36,4.67-1.78c2.42-0.6,4.63-0.27,6.85,0.5l-0.03-0.02c0.63,0.49,1.26,0.98,1.98,1.35l-0.01-0.01
	c0.49,0.74,1.3,1.34,1.34,2.29c1.61,1.85,0.86,3.6-0.31,5.32c-1.94,3.01-3.87,6.04-5.84,9.04c-0.91,1.39-1.61,2.85-2.14,4.38
	c-0.46,0.97-0.86,1.96-1.33,2.93c-0.66,1.39-0.25,2.85-0.37,4.28C601.52,174.12,601.43,174.2,601.35,174.28z"/>
<path class="st8" d="M347.97,153.69c0.51-0.01,1.03-0.01,1.54-0.02c1.26,0.31,2.51,0.94,3.81,0.74c2.49-0.39,3.3,0.78,3.85,2.63
	c1.57,5.24-0.89,11.97-10.07,11.07c-4.44-0.43-8.23-1.92-10.56-5.55c-0.3-2.36-2.47-4.16-2.56-6.6c1.7,1.9,2.22,4.33,3.89,6.25
	c2.26,2.6,5.22,3.86,8.8,4.18c0.33,0.03,0.66,0,0.99,0.01c6.49,0.01,8.79-2.24,8.2-8.02c-0.16-1.6-0.88-2.53-2.93-2.52
	C350.94,155.87,348.97,155.58,347.97,153.69L347.97,153.69z"/>
<path class="st11" d="M639.88,182.61c0.73,0.75,0.48,1.66,0.47,2.52c-0.03,5.87,4.49,9.2,10.4,9.35c2.88,0.07,5.5-0.59,8.13-1.39
	c1.8-0.54,2.88-1.81,3.75-3.27c2.67-4.49,2.49-9.16,1.22-13.9c-0.52-1.94-1.17-3.86-1.55-5.86c2.08,1.71,1.64,4.48,3.36,6.32
	c0.09,0.1,0.17,0.2,0.26,0.3c0.83,3.34,1,6.69,0.06,10.04c-0.25,1.18-0.88,2.23-1.48,3.29c-0.91,1.21-1.76,2.45-3.31,3.13
	c-5.9,3.44-11.91,3.51-18.01,0.46c-0.93-0.24-1.27-1.04-1.9-1.58c-0.24-0.79-0.78-1.46-1.18-2.19
	C639.05,187.45,638.16,185.06,639.88,182.61z"/>
<path class="st17" d="M499.49,126.58c-0.33-0.05-0.47-0.54-0.92-0.32c-0.32-0.2-0.65-0.39-0.97-0.59c-1.56-1.82-1.88-3.94-1.77-6.13
	c0.17-3.65-0.42-7.32,0.3-10.96c0.28-0.16,0.53-0.13,0.76,0.08c0.78,0.98,0.4,2.1,0.48,3.16c0.24,3.45-0.48,6.94,0.47,10.36
	c0.54,1.01,1.42,1.77,2.31,2.53c0.6,0.51,1.35,0.51,2.1,0.48c2.19,0.02,4.38,0.01,6.56-0.01c0.88-0.01,1.81,0.09,2.49-0.58
	c0.24-0.38,0.6-0.75,0.63-1.18c0.28-3.89,0.65-7.79-0.21-11.63c-0.66,2.35-0.11,4.69-0.28,7.02c-0.07,0.99,0.15,2.03-0.72,2.87
	c-0.62,0.39-0.96-0.02-1.32-0.37l0.02,0.02c-0.47-3.41-0.06-6.83-0.22-10.24c-0.03-0.7,0.32-1.46-0.31-2.09
	c0.03-0.14,0.06-0.28,0.09-0.42c0.22-0.09,0.42-0.2,0.69-0.21c4.49-0.23,4.49-0.24,4.49,3.78c0,4.44,0,8.88,0,13.32
	c0,0.87,0.19,1.87-1.4,1.71c-3.52-0.45-7.06-0.09-10.59-0.21C501.28,126.86,500.36,126.83,499.49,126.58z"/>
<path class="st18" d="M515.9,172.96c-2-0.63-1.62-2.08-1.27-3.33c1.66-6,4.39-11.6,8.32-16.73c0.32-0.42,0.61-0.85,0.88-1.29
	c0.69-1.15,1.77-2.54,0.41-3.56c-1.35-1.01-3.22-0.76-4.83,0.06c-1.56,0.8-3.16,1.53-4.47,2.66c-0.59,0.51-1.24,0.98-2.32,0.29
	c1.05-0.71,2.33-1.16,2.74-2.33c2.56-2,5.33-3.44,8.91-2.45c2.66,0.73,3.4,2.44,1.97,4.54c-0.88,1.29-1.91,2.5-2.87,3.75
	c-1.47,1.49-1.83,3.58-3.38,5.03c-0.63,1.72-1.66,3.31-2.08,5.09l0.03-0.03c-1.35,2.06-2.02,4.26-1.87,6.65
	C516.11,171.88,516.36,172.45,515.9,172.96z"/>
<path class="st15" d="M486.72,146.68c1.75,0.02,3.04-1.04,4.47-1.66c4.65-2.01,9.54-2.53,14.59-2.22c2.13,0.13,3.79,1.15,4.79,2.97
	c-2.54-1.52-5.26-2.38-8.34-2.16c-8.89,0.66-16.34,3.62-21.82,10.14c-2.81,3.34-4.93,6.97-6.9,10.71c-0.25,0.48-0.4,0.95-1.07,1.06
	c-0.09-0.07-0.19-0.14-0.28-0.21c-0.47-0.62-0.21-1.24,0.01-1.85c0.35-1.31,1.35-2.39,1.62-3.73c0.31-0.53,0.5-1.14,1-1.57
	c0.86-0.47,1.1-1.34,1.63-2.03c0.16-0.24,0.26-0.52,0.59-0.63C479.82,152.2,482.63,148.88,486.72,146.68z"/>
<path class="st12" d="M396.34,145.8c2.16-0.48,3.02-2.34,4.62-3.41c-0.16,1.54-0.21,1.48-4.42,4.87c-1.84,1.48-4.21,2.16-6.18,3.47
	c0.8,0.97,1.67,0.53,2.54,0.46c5.62-0.42,10.91,0.26,15.2,3.92c0.68,0.58,1.19,1.2,1.11,2.08c-0.88,0.24-0.86-0.84-1.58-0.84
	c-4.22-2.94-9.04-3.97-14.32-3.45c-0.91,0.09-1.79,0.1-2.68-0.14c-1.18-0.32-2.17-0.9-2.31-2.02c-0.14-1.07,0.99-1.37,1.85-1.8
	C392.23,147.9,394.28,146.85,396.34,145.8z"/>
<path class="st19" d="M589,166.84c-0.33,2.29-0.85,4.54-1.17,6.83c-0.33,2.38,0.31,4.62,0.2,6.92c-0.04,0.8,0.36,1.57,1.11,1.84
	c2.37,0.87,4.55,2.64,7.47,1.3c1.21-0.56,2.67-0.49,4-0.83c3.64-0.9,6.16-2.87,8.28-5.46c0.52-0.63,1.23-1.17,1.92-1.67
	c1.02-0.73,1.23-0.01,1.4,0.7c-0.84,0.6-1.81,1.06-2.43,1.89c-0.73,1.22-2.05,1.95-3.07,2.93c-3.77,2.63-7.87,4.38-12.85,4.2
	c-1.64-0.06-3-0.65-4.46-1.08l0.05,0.03c-0.78-0.54-1.39-1.24-2.16-1.78c-0.11-0.12-0.21-0.25-0.32-0.37
	c-0.34-1.41-0.5-2.87-1.16-4.21c-0.48-3.08,0.58-6.03,0.96-9.03c-0.16-0.79,0.54-1.25,0.91-1.84
	C588.04,166.85,588.43,166.6,589,166.84z"/>
<path class="st9" d="M407.52,173.33c1.16,0.84,0.53,1.69,0.02,2.53c-1.42,2.3-3.77,3.82-6,5.41c-7.13,5.09-15.21,8.51-24.14,10.15
	c-2.99,0.55-6,1.29-9.12,1.27c-4.02-0.03-4.02,0-4.02,3.5c-2.07,0.24-1.58-1.26-1.55-2.08c0.03-0.79,0.5-1.64,1-2.38l-0.03,0.05
	c0.45-0.48,1.02-0.65,1.73-0.63c8.18,0.17,15.97-1.41,23.47-4.23c1.5-0.73,3.17-1.19,4.5-2.2l-0.05,0.03
	c1.04-0.16,1.82-0.68,2.53-1.34l-0.05,0.03c1.19-0.35,2.15-1,3.01-1.79l-0.05,0.03c3.58-1.66,5.87-4.51,8.43-7.12
	C407.05,174.09,407.02,173.65,407.52,173.33z"/>
<path class="st15" d="M470.95,177.35c0.19,0.13,0.46,0.23,0.57,0.41c3.53,5.91,8.27,7.48,15.79,6.02c5.44-1.06,8.89-4.07,11.97-7.75
	c0.54-0.64,0.94-1.37,1.8-1.75c0.19,0.14,0.32,0.31,0.39,0.52c-0.48,1.57-2.13,2.5-2.81,3.96c-5.41,6.32-13.83,8.67-21.9,6.08
	c-2.04-0.66-3.88-1.59-4.87-3.45C471.32,180.1,470.11,178.91,470.95,177.35z"/>
<path class="st20" d="M357.35,108.14c0.17,0.15,0.33,0.29,0.5,0.44c-3.64,1.83-6.91,4.12-10.05,6.54
	c-5.66,4.35-9.57,9.79-12.11,16.02c-0.41,1.01-1.24,1.84-1.29,3.14c-1.05-0.69-0.6-1.49-0.78-2.12c2.57-7.57,7.62-13.69,14.17-18.92
	c0.78-0.62,1.52-1.32,2.56-1.63c1.04-0.57,2.07-1.15,3.07-1.77c0.48-0.28,0.97-0.55,1.45-0.83
	C355.65,108.64,356.32,107.98,357.35,108.14z"/>
<path class="st20" d="M543.06,161.58c2.8-5.96,6.87-10.9,13.79-13.57c2.15-0.83,4.12-0.64,5.54,1.01c0.91,1.06,2.85,1.33,2.93,3
	c-0.42,0.86-1.09,1.6-2.18,1.37c-1.03-0.21-0.61-1.21-0.77-1.88c-0.38-1.64-1.57-2.3-3.38-2.18c-3.6,0.24-6.19,2.04-8.55,4.27
	c-2.55,2.4-4.18,5.35-6.26,8.02C543.8,161.84,543.42,161.84,543.06,161.58L543.06,161.58z"/>
<path class="st21" d="M501.08,174.72c0-0.15,0-0.29,0-0.44c1.62-1.08,3.01-0.74,3.41,0.84c0.04,0.14,0.04,0.29,0.04,0.44
	c-0.11,7.32,6.19,7.05,11.46,6.1c3.67-0.66,5.71-2.92,8.23-4.82c0.49-0.37,1.3-1.19,1.81-0.63c0.67,0.72-0.47,0.96-1.02,1.35
	c-1.23,0.84-2.47,1.7-3.14,3.01c-4.1,3.26-8.82,4.15-14.05,2.73c-1.15-0.31-2.24-0.9-2.8-1.97c-1.15-1.56-2.25-3.12-1.99-5.13
	C503.2,174.93,501.87,175.07,501.08,174.72z"/>
<path class="st22" d="M368.71,178.23c-0.01,0.46-0.02,0.91-0.03,1.37c-2.86-3.52-3.9-7.63-4.8-11.78
	c-1.65-7.63-2.18-15.33-1.6-23.07c0.67-8.96,2.58-17.75,5.72-26.3c0.22-0.6,0.39-1.29,1.2-1.56c0.17,0.15,0.27,0.32,0.31,0.53
	c-0.11,0.89-0.71,1.65-0.8,2.54c-0.03,0.63-0.64,0.91-1,1.35c-0.6,0.78,0.12,1.76-0.47,2.55c-1.85,3.85-1.94,8.05-3.02,12.05
	c-1.82,6.81-1.4,13.7-1.44,20.58c-0.01,1.89,0.36,3.72,0.96,5.53c0.36,0.2,0.49,0.53,0.58,0.87c0.76,3.22,1.13,6.49,2.11,9.68
	C367.03,174.53,367.86,176.37,368.71,178.23L368.71,178.23z"/>
<path class="st19" d="M526.76,178.66c0.75-1.26,1.15-0.29,1.28,0.25c0.72,3.09,3.26,4.11,6.35,4.59c8.91,1.37,16.61-0.83,23.26-6.16
	c0.24-0.19,0.49-0.39,0.76-0.55c0.12-0.07,0.31-0.06,0.62-0.1c0.22,0.96-0.91,1.3-1.15,1.99c-0.41,0.21-0.28,0.86-0.92,0.89
	c-3.93,2.5-8.03,4.6-12.91,5.42c-5.05,0.86-9.87,0.73-14.49-1.46c-1.29-0.45-1.49-1.74-2.4-2.48
	C527.25,180.22,526.19,179.55,526.76,178.66z"/>
<path class="st23" d="M344.01,128.29c3.93-9.67,11.93-15.68,22.36-19.42c1.63-0.58,3.48-0.77,5.3-0.73
	c0.16,0.16,0.25,0.34,0.26,0.56c-1.09,1.56-3.14,1.07-4.66,1.7c-0.21,0.09-0.4,0.21-0.57,0.34l0.01,0
	c-1.61,0.65-3.33,1.08-4.92,1.78c-1.95,1.03-3.9,2.06-5.84,3.09c-2.07,1.4-4.02,2.91-5.42,4.9l0.05-0.05
	c-1.06,0.81-1.72,1.88-2.39,2.94c-0.12,0.26-0.25,0.52-0.43,0.75c-0.37,0.66-0.99,1.22-1.03,2.01c-0.09,0.38-0.24,0.72-0.73,0.82
	c-0.5,0.44-1,0.88-1.5,1.32C344.34,128.5,344.18,128.51,344.01,128.29z"/>
<path class="st24" d="M576.67,160.71c-0.84,0.31-0.97,1.05-1.21,1.99c-1.22-3.75,12.23-22.43,21.94-30.91
	c0.53-0.24,0.85,0,1.11,0.38c0.07,0.2,0.06,0.4-0.05,0.58l0.02-0.02c-2.02,1.16-3.62,2.68-5.01,4.4c-1.01,1.23-1.98,2.48-3.31,3.47
	c-0.95,0.71-1.32,1.8-2.15,2.59c-0.31,0.43-0.62,0.87-0.94,1.3c-0.76,1.21-1.94,2.17-2.52,3.48c-0.33,0.45-0.65,0.9-0.98,1.35
	c-0.99,1.26-1.69,2.65-2.39,4.05l0.03-0.04c-1.05,0.96-1.39,2.21-1.71,3.46c-0.59,0.99-0.68,2.16-1.42,3.1
	C577.76,160.36,577.32,160.67,576.67,160.71z"/>
<path class="st25" d="M471.97,127.48c-0.02-0.18-0.03-0.36-0.05-0.53c-0.63-3.26-0.63-3.22-4.76-3.28c-1.86-0.02-3.75,0.29-5.6-0.22
	c-0.9-0.83-1.75-1.7-2.71-2.46c-0.87-0.69-0.48-1.07,0.27-1.47c2.85-0.45,5.71-0.11,8.57-0.2c1.23-0.04,2.46,0.01,3.68-0.19
	c0.02-0.51,0.02-1.01,0.06-1.52c0.1-1.27-0.34-1.8-1.96-1.66c-2.18,0.19-4.4,0.06-6.6,0.07c-1.12,0-2.18-0.08-2.25-1.41
	c1.06,0.97,2.44,0.66,3.72,0.68c1.64,0.03,3.29,0.13,4.91-0.02c2.34-0.22,2.9,0.63,2.89,2.61c0,1.94-0.66,2.56-2.82,2.47
	c-3.08-0.14-6.17-0.04-9.4-0.04c0.66,1.8,1.68,2.56,3.68,2.42c2.2-0.16,4.42-0.06,6.63-0.03c0.93,0.01,2.42-0.35,2.51,0.72
	C472.86,124.74,473.88,126.4,471.97,127.48z"/>
<path class="st26" d="M427.49,169.9c-0.16,0-0.33,0-0.49,0c0.68-3.21,1.01-6.43,1.04-9.72c0.06-6.88-2.86-8.86-9.14-11.39
	c-3.17-1.28-6.63-1.84-10.35-2.3c1.01-0.98,2.04-0.71,2.99-0.49c2.84,0.65,5.81,0.9,8.47,2.14c0.48,0.22,1.11,0.18,1.67,0.26
	c2.82,1.07,4.87,2.87,6.34,5.23c2.1,5.12,2,10.27,0.29,15.45C428.17,169.46,428.22,169.99,427.49,169.9z"/>
<path class="st11" d="M437.83,181.37c-0.12-0.64-0.26-1.28-0.36-1.93c-0.02-0.12,0.13-0.25,0.21-0.4c0.94,0.03,0.74,0.85,1.05,1.27
	c2.74,3.69,7.12,4.27,11.33,3.88c4.07-0.38,8.35-0.86,11.98-2.91c2.2-1.24,4.3-2.62,6.45-3.93c0.49,1.81-1.52,1.92-2.42,2.78
	c-0.62,1.06-1.85,1.46-2.88,2.09c-2.8,0.8-5.33,2.13-8.29,2.67c-4.63,0.83-9.11,0.84-13.58-0.53
	C439.6,183.87,438.61,182.72,437.83,181.37z"/>
<path class="st4" d="M578.18,109.4c-0.03,3.98-0.06,7.96-0.1,11.94c-1.09-1.14-0.55-2.51-0.6-3.78c-0.09-2.62,0.03-5.24-0.07-7.86
	c-0.05-1.27,0.5-1.72,1.86-1.65c0.82,0.05,1.64,0.04,2.46,0c1.28-0.06,1.74,0.48,1.73,1.57c-0.03,5.46-0.01,10.92,0,16.38
	c0,0.88-0.12,1.64-1.4,1.62c-3.69-0.04-7.39,0-11.07-0.17c-1.63-0.07-3.21-0.62-4.39-1.76c4.87,1.67,9.96,1.25,15.01,1.24
	c0.72-0.71,0.72-1.57,0.72-2.46c-0.02-4.3-0.01-8.59-0.01-12.89C582.33,108.57,581.36,108.06,578.18,109.4z"/>
<path class="st9" d="M565.32,144.86c-0.15,0.56-0.06,1.7-1.18,0.74c-2.3-2-5.13-2.29-8-1.93c-4.58,0.57-9.34,0.87-13.33,3.24
	c-3.54,2.1-6.77,4.56-8.65,8.11c-0.35,0.27-0.72,0.24-1.09,0.04c-0.22-0.34-0.15-0.68,0-1.02l-0.03,0.06
	c0.89-0.73,1.26-1.8,2.11-2.55c0.23-0.32,0.47-0.64,0.7-0.96c1.03-0.62,1.7-1.6,2.76-2.19c0.34-0.24,0.19-0.83,0.8-0.88
	c1.12-0.48,2.13-1.11,3.11-1.77l-0.06,0.02c4.78-2.28,9.9-3.34,15.3-3.45c2.18-0.04,4.22,0.39,6.15,1.28
	C564.66,143.77,565.15,144.18,565.32,144.86z"/>
<path class="st26" d="M368.71,119.96c-0.7-1.01,0.23-1.76,0.51-2.62c1.15-1.49,2.84-1.22,4.42-0.95c1.74,0.3,3.43,0.84,5.12,1.33
	c1.74,0.27,3,1.29,4.3,2.23c1.33,1.73,0.7,3.44-0.1,5.12c-0.53,1.11-1.23,2.16-1.88,3.22c-0.8,1-1.45,2.05-1.83,3.26
	c-0.15-2.21,0.65-4.26,1.61-6.24c1.57-3.22,1.04-4.69-2.49-6.19c-1.1-0.46-2.21-0.93-3.36-1.24
	C372.48,117.22,370.46,117.93,368.71,119.96z"/>
<path class="st27" d="M546.5,126.96c1.18,0.01,2.37-0.07,3.49,0.38c0.18-0.14,0.33-0.13,0.45,0.07c-1.33,0.53-2.74,0.17-4.11,0.23
	c-1.14,0.06-1.29-0.68-1.29-1.47c0-5.53,0.02-11.06-0.01-16.59c-0.01-1.14,0.51-1.54,1.76-1.53c4.68,0.03,9.35,0.04,14.03,0
	c2.36-0.02,1.7,1.49,1.78,2.62c0.08,1.2,0.2,2.38-1.88,2.33c-3.12-0.08-6.23-0.03-9.35-0.03c-0.79,0-1.72-0.21-1.89,0.87
	c-0.66-0.07-1.54,0.21-1.81-0.61c-0.18-0.55,0.33-0.88,0.82-1.15c1.87-0.77,3.8-0.01,5.71-0.19c1.61-0.14,3.24-0.1,4.86-0.01
	c1.88,0.1,2.53-0.63,2.17-2.2c-0.39-0.79-1.2-0.65-1.91-0.65c-3.77-0.02-7.55-0.02-11.32,0c-0.8,0-1.71-0.12-1.93,0.9
	c-0.11,5.12-0.02,10.23-0.05,15.34C546.04,125.86,545.98,126.48,546.5,126.96z"/>
<path class="st26" d="M573.19,175.17c-0.23-1.58,1.09-2.56,1.95-3.63c4.91-6.17,10.14-12.11,16.42-17.25
	c0.42-0.34,0.76-1.1,1.55-0.62c0.15,0.09-0.07,0.66-0.12,1.01c0.29,1.48-1.06,1.62-2.1,2.02c-2.39,2.23-4.79,4.45-7.18,6.68
	c-1.42,1.15-2.38,2.64-3.6,3.93c-0.32,0.43-0.64,0.85-0.96,1.28c-0.49,0.59-1.05,1.14-1.51,1.75c-0.49,0.73-0.98,1.46-1.48,2.19
	C574.97,173.23,575.08,175.08,573.19,175.17z"/>
<path class="st28" d="M449.87,109.85c-5.05-2.31-10.46-0.91-15.71-1.22c-1.13-0.07-1.22,0.78-1.22,1.54
	c0,5.16-0.01,10.33,0.01,15.49c0,0.64-0.03,1.42,1.06,1.41c4.5-0.07,9.01-0.13,13.51-0.29c1.58-0.06,2.96-0.78,4.28-1.53
	c-0.97,1.89-2.99,2.24-4.93,2.31c-4.26,0.16-8.52,0.06-12.79,0.11c-1.28,0.01-1.74-0.5-1.73-1.59c0.03-5.45,0.04-10.91,0-16.36
	c-0.01-1.19,0.45-1.72,1.85-1.7c3.85,0.05,7.71-0.04,11.56,0.06C447.32,108.14,449.12,108.12,449.87,109.85z"/>
<path class="st29" d="M578.05,121.33c0.52,0.13,1.04,0.26,1.57,0.39c1.55,1.12,1.03,1.85-0.56,2.37c-2.28-0.24-4.69,0.7-6.84-0.63
	c-1.92-1.09-2.6-2.63-2.5-4.64c0.14-2.76-0.03-5.54,0.07-8.3c0.04-1.23,0.1-2.11-1.8-1.98c-1.48,0.11-2.81-0.03-2.7,1.88
	c0.26,4.42-0.44,8.88,0.47,13.29c0.06,0.28-0.01,0.58-0.01,0.87c-0.89-1.05-1.04-2.26-1.04-3.52c0-3.42,0.16-6.84-0.06-10.25
	c-0.14-2.21,0.59-2.85,3.12-2.84c2.45,0.01,3.1,0.7,2.96,2.75c-0.18,2.75-0.05,5.52-0.05,8.29c0,3.34,0.41,3.69,4.28,3.69
	c0.74,0,1.48-0.03,2.21,0.02C578.67,122.83,578.18,122,578.05,121.33z"/>
<path class="st30" d="M377.09,138.41c1.27-1.42,0.63-3.49,2.09-4.84c0.18,1.35-0.49,2.57-0.81,3.84c-2.8,11.14-4.07,22.4-3.59,33.81
	c0.12,2.81,0.91,5.43,3.31,7.46c0.3,0.22,0.73,0.35,0.71,0.79c-1.47,0.02-2.28-0.87-2.73-1.87c-0.98-2.19-2.38-4.31-1.96-6.82
	c-0.34-2.33-0.34-4.66,0-6.99c-0.41-7.56,1.19-14.94,2.51-22.35C377.26,140.48,376.48,139.36,377.09,138.41z"/>
<path class="st31" d="M381.05,108.14c6.68,0.21,11.67,3.42,16.26,7.26c1.23,1.03,2.55,2.06,3.34,3.46c0.44,0.79,1.01,1.55,0.22,2.42
	c-1.05-0.89-1.71-2.04-2.64-3.02c-1.95-1.9-4-3.69-6.33-5.21c-2.77-1.64-5.72-2.91-9.05-3.37c-0.8-0.11-1.62-0.15-2.03-0.93
	C380.79,108.51,380.87,108.31,381.05,108.14z"/>
<path class="st2" d="M363.71,191.73c0.07,1.5-2.02,3.21,0.56,4.46c1.34,2.59,4.06,3.82,7.8,3.47c1.52-0.14,3.02-0.41,4.55-0.4
	c7.54-0.41,14.62-2.42,21.5-5.04c0.92-0.35,1.76-0.78,2.8-0.59c-5.94,3.09-12.52,4.54-19.17,5.78c-3.53,0.66-7.11,1.13-10.72,1.19
	c-3.45,0.06-6.48-0.66-8.04-3.88C362.07,194.84,362.04,193.23,363.71,191.73z"/>
<path class="st11" d="M410.26,143.2c-0.62,0.11-1.24,0.22-2.15,0.38c1.01-1.62,2.69-2.18,3.98-3.08c5.85-4.07,9.66-8.99,9-15.95
	c-0.13-1.38-0.02-2.77-0.02-4.15c0,0,0,0,0,0c1.98,0.76,0.82,2.49,1.4,3.71c0.38,0.79,0.14,1.85,0,2.78
	c-0.58,0.87-0.34,1.85-0.48,2.77c-0.39,1.01-0.67,2.04-0.83,3.1l0.03-0.04c-1.06,0.8-1.22,2.11-2.1,3.01
	C416.97,138.99,413.91,141.37,410.26,143.2z"/>
<path class="st32" d="M609.79,178.36c0.34-1.11,0.91-1.97,2.43-1.89c0.17,0.29,0.33,0.59,0.5,0.88c0.19,0.24,0.35,0.5,0.46,0.77
	c0.91,2.21,1.87,4.42,4.6,5.36c3.33,1.15,6.72,1.63,10.34,1.06c3.52-0.56,6.76-1.92,10.28-2.42c0.55,0.03,1.1,0.07,1.49,0.49
	c-1.04,2.56-0.33,5.02,0.55,7.48c0.15,0.2,0.11,0.36-0.12,0.49c-1.58-1.85-1.95-3.97-1.61-6.18c0.26-1.66-0.22-1.71-1.77-1.03
	c-4.43,1.95-9.16,2.61-14.08,2.39c-5.19-0.23-8.96-2.29-10.58-6.75C611.65,177.29,610.96,177.55,609.79,178.36z"/>
<path class="st9" d="M592.45,131.35c-9.16,2.08-13.81,8.64-18.77,14.9c-1.15-0.18-0.76-0.82-0.53-1.41c-0.03-0.13,0-0.24,0.08-0.35
	c1.5-1.6,3.01-3.2,4.31-4.93l-0.05,0.06c1.01-1.07,2.44-1.81,3.04-3.19c0.36-0.8,1.38-0.98,1.91-1.62c0.84-0.27,1.41-0.88,2.11-1.32
	c0.9-0.59,1.8-1.18,2.69-1.77c1.41-0.27,2.55-1.15,3.97-1.41c0.48,0.05,0.96,0.1,1.31,0.46
	C592.64,130.98,592.63,131.18,592.45,131.35z"/>
<path class="st16" d="M479.42,120.62c2.12,0.38,4.27,0.19,6.4,0.17c1.5-0.01,2.12,0.51,2.04,1.81c-0.04,0.73,0.1,1.48-0.03,2.19
	c-0.43,2.32,0.76,2.85,3.19,2.76c1.86-0.07,2.68-0.4,2.56-2.2c-0.27-4.15,0.32-8.32-0.35-12.46c-0.13-0.79-0.15-1.62-1.03-2.12
	c-1.16,0.16-1.63-0.34-1.6-1.32c0.02-0.14,0.05-0.28,0.07-0.42c3.25,0.76,3.27,3.31,3.42,5.44c0.28,3.92,0.09,7.87,0.11,11.81
	c0.01,1.07-0.49,1.65-1.75,1.62c-0.41-0.01-0.82,0-1.23,0.01c-4,0.02-3.96,0.02-4.04-3.56c-0.02-1.01,0.63-2.65-0.94-2.82
	c-1.93-0.21-4.18-1.06-5.93,0.65c-0.74-0.28-1.24-0.75-1.48-1.44C479,120.6,479.2,120.56,479.42,120.62z"/>
<path class="st12" d="M589,166.84c-0.29,0.15-0.59,0.29-0.88,0.44c-0.34,0.01-0.5-0.16-0.54-0.44c-0.02-0.15-0.05-0.29-0.07-0.44
	c0.36-0.48,0.38-1.11,0.86-1.54c0.53-0.64,0.91-1.33,1.07-2.12c0.43-1.86,1.4-3.52,2.51-5.12c0.47-0.87,0.33-2.17,2-2.16
	c1.12,0.27,0.82,0.73,0.42,1.45C592.52,160.18,590.78,163.52,589,166.84z"/>
<path class="st33" d="M628.51,173.85c-0.33-0.15-0.66-0.29-0.99-0.44c-0.41-0.84-0.29-1.69-0.08-2.54c-0.33-3,0.67-5.75,2.06-8.42
	c1.57-0.05,3.09,0.1,4.61,0.54c3.43,0.98,6.62-0.22,9.84-1.04c0.78-0.2,1.52-0.53,2.28-0.8c-3.88,3.13-8.54,2.86-13.22,2.3
	c-3.27-0.39-3.48-0.35-4.28,2.55c-0.73,2.63-1.47,5.27,0.44,7.79C628.99,174.03,628.77,174.06,628.51,173.85z"/>
<path class="st2" d="M381.06,108.57c1.69,1.33,4.1,0.77,5.92,1.8c1.62,0.91,3.75,1.09,4.92,2.67c-6.67-3.18-13.69-4.53-21.23-3.19
	c-1.31,0.19-2.52,0.96-3.93,0.5c1.23-1.49,3.68-0.33,4.93-1.78C374.8,108.22,377.93,108.21,381.06,108.57z"/>
<path class="st19" d="M529.57,183.53c2.55,0.43,4.88,1.67,7.54,1.7c6.19,0.07,11.92-1.24,17.08-4.37c0.86-0.52,1.64-1.23,2.77-1.3
	c-7.16,5.61-15.37,7.46-24.65,5.35C531.28,184.68,530.3,184.28,529.57,183.53z"/>
<path class="st34" d="M427.49,169.9c1.88-4.72,2.16-9.5,0.69-14.35c-0.19-0.61-0.12-1.28-0.16-1.93c1.33,1.48,1.71,3.28,1.87,5.07
	c0.49,5.22-0.29,10.25-3.32,14.88C426.35,172.25,427.3,171.15,427.49,169.9z"/>
<path class="st35" d="M394.38,103.78c-0.61-0.02-1.22-0.04-1.83-0.06c-7.17-0.73-14.33-1.05-21.5,0l-0.19-0.03l-0.17,0.07
	c-1.32,0.47-2.72,0.62-4.11,0.84l-0.18-0.02l-0.16,0.08c-0.48,0.28-0.97,0.32-1.46,0.02c2.82-1.5,6.06-1.78,9.17-2.05
	c7.28-0.63,14.58-0.39,21.8,0.82c0.23,0.04,0.43,0.2,0.64,0.31C395.72,104.1,395.05,104.06,394.38,103.78z"/>
<path class="st2" d="M389.45,186.99c-7.47,2.84-15.18,4.62-23.38,4.41c-0.8-0.02-1.6,0.24-2.4,0.38c0.21-0.81,0.92-0.94,1.69-0.93
	c8.4,0.18,16.33-1.65,24.05-4.39C389.67,186.62,389.68,186.8,389.45,186.99z"/>
<path class="st2" d="M563.92,143.58c-5.89-1.55-11.62-0.9-17.31,0.88c-1.38,0.43-2.58,1.32-4.13,1.3
	c5.95-3.49,12.48-4.32,19.39-3.26C562.68,142.62,563.42,142.96,563.92,143.58z"/>
<path class="st2" d="M441.32,184.35c2.04-0.37,3.73,0.87,5.72,0.9c4.74,0.06,9.27-0.69,13.58-2.45c0.82-0.34,1.62-0.72,2.57-0.59
	c-5.91,3.34-12.36,4.17-19.18,3.14C443.05,185.21,442.08,184.97,441.32,184.35z"/>
<path class="st31" d="M610.74,170.79c-1.1,2.85-3.44,4.47-6.67,5.07c-1.35,0.25-2.4-0.25-2.72-1.57c0,0,0.13-0.09,0.13-0.09
	c2.72,0.46,4.93-0.35,6.74-2.15c0.47-0.43,0.94-0.86,1.41-1.3c0.37,0.01,0.73,0.02,1.1,0.03L610.74,170.79z"/>
<path class="st27" d="M550.97,116.03c-0.17-0.42-0.33-0.84-0.5-1.25c2.67,1.11,5.5,0.27,8.23,0.54c0.99,0.1,2.55-0.46,2.77,0.72
	c0.24,1.26,1.07,2.82-0.56,3.96c-0.52,0.21-0.67-0.08-0.76-0.45c0.11-0.34,0.23-0.67,0.32-1.01c0.08-1.56-0.68-2.12-2.5-2.12
	C555.64,116.41,553.24,116.92,550.97,116.03z"/>
<path class="st2" d="M643.18,193.61c2.5,0.3,4.59,1.66,7.24,1.79c3.93,0.2,7.32-1.01,10.77-2.24
	C656.65,196.99,648.42,197.2,643.18,193.61z"/>
<path class="st2" d="M473.06,143.58c-5.84-1.71-11.38-0.6-16.8,1.44c-0.8,0.3-1.56,0.35-2.38,0.29c4.29-2.36,9.08-3.1,14-3.23
	C469.7,142.02,471.64,142.26,473.06,143.58z"/>
<path class="st36" d="M560.35,119.52c0.19,0.16,0.37,0.32,0.56,0.47c-2.48,0.63-5.02,0.25-7.53,0.25c-1.79,0-2.46,0.45-2.46,2.11
	c0,1.68,0.64,3.45-0.48,5.05c-0.15-0.01-0.3-0.03-0.45-0.07c0.84-1.5,0.36-3.11,0.46-4.67c0.07-1.07-0.13-2.16,0.52-3.16
	C554.1,119.18,557.23,119.16,560.35,119.52z"/>
<path class="st37" d="M451.75,125.29c0.33-2.79,0.62-5.43-0.58-8.31c-0.77-1.87,0.1-4.41-0.47-6.63c0.13,0.08,0.37,0.13,0.39,0.23
	c0.99,4.44,2.19,8.87,1.52,13.45C452.53,124.51,452.28,125,451.75,125.29z"/>
<path class="st22" d="M421.16,132.76c-0.29-1.1,0.11-2.12,0.4-3.16c0.62-0.81-0.12-1.81,0.47-2.63c-0.08-2.22,0.24-4.48-0.97-6.57
	c0-0.87,0-1.74-0.01-2.62C423.6,122.77,423.56,127.76,421.16,132.76z"/>
<path class="st23" d="M587.02,152.82c0.16,0.15,0.33,0.29,0.49,0.44c-2.07,2.03-4.13,4.05-6.2,6.08c-1.17,1.14-1.18,0.18-1.3-0.57
	c-0.04-0.47,0.33-0.78,0.6-1.12c0.8,0.1,0.69-0.77,1.24-0.93c1.13-0.95,2.28-1.88,3.18-3.02l0,0
	C585.75,153.49,586.05,152.55,587.02,152.82z"/>
<path class="st38" d="M515.9,172.96c-0.32-2.96-0.44-5.88,2.04-8.29c-0.7,1.93-1.47,3.86-1.57,5.9c-0.12,2.45,1.12,3.15,3.7,2.32
	c1.7-0.55,2.6-1.99,4.15-2.68C521.79,173.63,518.9,174.59,515.9,172.96z"/>
<path class="st39" d="M527.27,166.83c-1.19,1.05-1.11,2.99-3.12,3.45c2.76-3.41,2.94-7.75,5.27-11.34c0.69-1.06,1.33-2.14,2.19-3.1
	c0.1,0.06,0.19,0.13,0.29,0.19c0.19,1.56-1.08,2.65-1.61,3.97c-0.33,0.82-1.07,1.48-1.15,2.39c-0.21,0.39-0.57,0.67-0.95,0.93
	c-0.42,0.37-0.44,0.85-0.44,1.33C527.16,165.3,527.84,166.17,527.27,166.83z"/>
<path class="st2" d="M628.51,173.85c0.22-0.02,0.44-0.05,0.66-0.07c4.06,1.47,7.71,0.44,11.23-1.42c0.98-0.52,1.93-1.08,2.9-1.63
	C640.93,174.21,631.94,176.83,628.51,173.85z"/>
<path class="st33" d="M589.4,184.42c6.49,2.11,11.98-0.15,17.31-3.12C602.58,185.55,593.78,187.14,589.4,184.42z"/>
<path class="st2" d="M501.08,174.72c1.29-0.57,2.51-0.48,2.38,1c-0.18,2.08,0.83,3.79,1.56,5.61c-1.98-1.43-2.29-3.55-2.86-5.74
	c-1.89,0.58-2,2.51-3.5,3.19C498.76,177.09,500.73,176.29,501.08,174.72z"/>
<path class="st2" d="M591.57,130.54c-1.46,0.35-2.65,1.44-4.31,1.19c2.75-1.78,5.83-2.55,9.19-2c2.29,0.37,2.88,1.38,2.02,3.03
	c-0.04-0.2-0.09-0.4-0.13-0.59c-0.62-1.04-1.64-1.31-2.89-1.25C594.14,130.96,592.82,130.98,591.57,130.54z"/>
<path class="st40" d="M477,155.51c-0.05,0.25-0.1,0.5-0.16,0.75c-0.63,0.68-0.65,1.7-1.59,2.21c-0.28,0.49-0.56,0.97-0.85,1.46
	c-0.2,0.1-0.42,0.14-0.65,0.12c-0.57-0.16-1.03-0.43-1.11-1.02c1.15-1.31,1.54-3.08,3.18-4.1
	C475.93,155.58,476.41,155.65,477,155.51z"/>
<path class="st9" d="M568.26,153.26c0-0.15-0.01-0.3-0.01-0.44c-0.3-0.71,0.26-1.27,0.43-1.89c0.71-1.12,1.41-2.24,2.12-3.36
	c0.53-0.31,0.91-0.79,1.51-1.01c0.33,0.09,0.59,0.21,0.38,0.57C571.64,149.41,570.25,151.51,568.26,153.26z"/>
<path class="st2" d="M409.1,170.26c1.14-3.9,1.78-7.81,0.09-11.73c0.12-0.03,0.24-0.07,0.37-0.1c1.49,0.77,1.7,2.16,2.11,3.45
	c0.02,1.18,0.04,2.36-0.02,3.54c-0.03,1.3-0.82,2.43-1.04,3.7c-0.1,0.6-0.42,1.25-1.36,1.24L409.1,170.26z"/>
<path class="st41" d="M608.32,144.46c-4.03-0.89-7.81-0.09-11.52,1.27C601.09,142.92,604.94,142.49,608.32,144.46z"/>
<path class="st2" d="M543.06,161.58c0.37,0.01,0.74,0.03,1.12,0.04c-0.59,1.8-1.13,3.62-1.77,5.41c-0.77,2.16-0.86,4.26,0.3,6.34
	c-1.86-1.12-1.62-2.78-1.51-4.45C541.37,166.38,543.22,164.18,543.06,161.58z"/>
<path class="st42" d="M459.74,113.78c-0.8-0.04-1.55-0.22-1.43-1.11c0.07-0.54,0.67-0.59,1.18-0.51c4.32,0.74,8.69,0.13,13.02,0.37
	c-3.53,0.93-7.14,0.15-10.7,0.44C461.06,113.04,459.86,112.38,459.74,113.78z"/>
<path class="st43" d="M394.38,103.78c0.67-0.01,1.34-0.02,2.01-0.04c3.44,0.66,6.86,1.38,10.1,2.65c0.72,0.28,1.65,0.34,1.84,1.24
	C403.88,105.76,399.06,104.96,394.38,103.78z"/>
<path class="st44" d="M665.66,176.39c-0.2-0.99-0.39-1.99-0.59-2.98c2.58,4.43,2.8,9.01,1.15,13.72c-0.3-0.09-0.43-0.28-0.41-0.56
	c0.88-3.4,0.59-6.78-0.2-10.15L665.66,176.39z"/>
<path class="st45" d="M608.22,172.04c-2.1,2.47-3.51,2.92-6.74,2.15c-0.07-1.58-0.63-3.2,0.37-4.72c0.34,0.44,0.31,0.88,0.03,1.33
	c-0.03,1.03-0.59,2.21,0.77,2.9c1.42,0.72,2.61-0.01,3.78-0.64C607.04,172.74,607.42,172.11,608.22,172.04z"/>
<path class="st46" d="M571.19,180.38c-0.68,2.63-0.18,5.78-3.96,7.03c-0.27-0.38-0.21-0.75,0.01-1.12c0.27-0.43,0.7-0.74,1.04-1.11
	c0.63-0.73,0.69-1.61,0.85-2.46c0.13-0.97,0.2-1.97,1.36-2.5C570.75,180.17,570.99,180.23,571.19,180.38z"/>
<path class="st18" d="M407.17,174.56c-2.14,3-4.46,5.82-8.43,7.12C401.88,179.6,404.43,176.99,407.17,174.56z"/>
<path class="st47" d="M381.09,128.29c0.09-0.62,0-1.22,0.56-1.81c1.81-1.92,2.19-4.14,1.42-6.53c1.35,0.7,1.2,1.88,0.96,2.91
	c-0.51,2.26-1.57,4.36-2.94,6.32C381.09,128.88,381.09,128.59,381.09,128.29z"/>
<path class="st48" d="M580.62,157.65c-0.2,0.37-0.4,0.74-0.6,1.12c-0.48,0.49-0.96,0.97-1.45,1.46c-0.58,0.37-0.94,0.33-0.93-0.39
	c-0.08-1.25,0.95-2.09,1.48-3.12c0.42-0.21,0.07-1.07,0.96-0.88C580.67,156.34,578.79,157.44,580.62,157.65z"/>
<path class="st49" d="M586.95,168.55c0.25,3.27-1.65,6.41-0.79,9.72c0.12,0.45,0.33,0.91-0.14,1.3c-1.18-2.88-0.4-5.73,0.1-8.59
	c0.14-0.79,0.32-1.57,0.49-2.36C586.65,168.36,586.77,168.34,586.95,168.55z"/>
<path class="st50" d="M466.06,180.13c0.65-1.03,2.3-1.38,2.42-2.78c0.82,0,1.64,0,2.47,0c-0.18,1.44,0.83,2.66,0.94,4.05
	C470.71,178.24,468.7,178.05,466.06,180.13z"/>
<path class="st2" d="M442.75,154.51c0.01,0.46,0.03,0.91,0.04,1.37c-0.93,2.02-2.62,3.73-3.09,5.95c-0.12,0.53-0.62,0.81-1.29,0.65
	l-0.12-0.08C438.9,159.39,440.83,156.96,442.75,154.51z"/>
<path class="st2" d="M364.78,104.66c0.49-0.01,0.97-0.01,1.46-0.02c-2.9,1.2-5.78,2.46-8.95,3.01
	C359.53,106.16,362.26,105.62,364.78,104.66z"/>
<path class="st15" d="M560.27,185.39c0.03-0.35,0.05-0.69,0.08-1.04l0,0c1.66,1.02,3.11,2.47,5.43,2.19
	c0.58-0.14,0.62,0.15,0.54,0.53c-0.2,0.14-0.43,0.24-0.68,0.29c-0.76,0.07-1.52,0.06-2.29,0.01c-0.77-0.11-1.42-0.49-2.08-0.82
	C560.69,186.35,560.32,185.98,560.27,185.39z"/>
<path class="st2" d="M378.76,117.72c-1.6,0.14-2.99-0.56-4.45-0.92c-1.85-0.45-3.49-0.38-5.09,0.54c-0.01-0.15-0.01-0.3-0.02-0.45
	c1.56-1.47,3.45-1,5.25-0.6C375.93,116.62,377.53,116.75,378.76,117.72z"/>
<path class="st2" d="M350.53,120.51c1.03-2.31,2.93-3.87,5.42-4.9C354.14,117.25,352.34,118.88,350.53,120.51z"/>
<path class="st2" d="M593.48,137.13c0.99-2.08,2.6-3.59,5.01-4.4C596.82,134.2,595.15,135.66,593.48,137.13z"/>
<path class="st51" d="M593.94,155.45c-0.67,0.72-1.34,1.44-2,2.16c-0.11-0.52-0.47-0.81-1.05-0.92c0.7-0.67,1.4-1.35,2.1-2.02
	C593.6,154.65,593.89,154.93,593.94,155.45z"/>
<path class="st22" d="M517.92,164.7c-0.24-2.03,1.19-3.58,1.93-5.32c0.21-0.2,0.41-0.19,0.59,0.04
	C519.74,161.23,519.05,163.05,517.92,164.7z"/>
<path class="st52" d="M378.79,179.47c-0.24-0.26-0.47-0.53-0.71-0.79c3.18,0.86,3.58,1.74,2.01,4.38c-0.69-0.96,0.15-2.11-0.51-3.08
	C379.31,179.81,379.05,179.64,378.79,179.47z"/>
<path class="st26" d="M577.55,139.57c-0.9,2.01-2.36,3.64-4.31,4.93C574.37,142.64,575.89,141.06,577.55,139.57z"/>
<path class="st2" d="M520.44,159.42c-0.2-0.01-0.4-0.02-0.59-0.04c1.48-1.42,1.49-3.7,3.53-4.79
	C522.39,156.2,521.88,158.03,520.44,159.42z"/>
<path class="st2" d="M611.28,153.4c0.53-1.8,1.6-3.61-0.06-5.39c0.17-0.29,0.37-0.31,0.59-0.04
	C613.56,149.93,613.17,151.72,611.28,153.4z"/>
<path class="st2" d="M565.78,186.99c0.16,0,0.33-0.01,0.49-0.01c0.37-0.5,0.76-0.94,1.5-0.42c-0.18,0.28-0.36,0.57-0.55,0.85
	c-2.16,0.7-4.22,0.87-5.96-0.83c0.69,0.14,1.37,0.28,2.06,0.42C564.15,187.34,564.96,187.34,565.78,186.99z"/>
<path class="st53" d="M398.23,118.26c1.28,0.73,2.06,1.81,2.64,3.02c0.24,0.58,0.58,1.14,0.41,1.79
	C400.26,121.46,399.24,119.86,398.23,118.26z"/>
<path class="st2" d="M580.11,167.3c0.77-1.62,1.79-3.06,3.6-3.93C582.68,164.81,581.72,166.29,580.11,167.3z"/>
<path class="st54" d="M573.19,175.17c1.44-0.48,1.34-2.32,2.97-2.64c-0.7,1.49-1.78,2.76-2.92,4
	C573.22,176.08,573.21,175.62,573.19,175.17z"/>
<path class="st50" d="M587.02,152.82c-0.66,0.29-1.16,0.87-1.97,0.88c1.16-1.18,2.3-2.39,3.92-3.11
	C588.86,151.7,587.37,151.87,587.02,152.82z"/>
<path class="st2" d="M581.18,153.36c0.17-1.64,0.92-3.01,2.39-4.05C583.02,150.78,582.39,152.21,581.18,153.36z"/>
<path class="st55" d="M361.8,112.52c1.44-1.03,3.07-1.64,4.92-1.78C365.28,111.78,363.6,112.29,361.8,112.52z"/>
<path class="st2" d="M586.01,179.57c0.05-0.43,0.1-0.87,0.14-1.3c1.21,1.19,0.82,2.64,0.82,4.02
	C586.38,181.46,586.16,180.53,586.01,179.57z"/>
<path class="st54" d="M571.19,180.38c-0.16-0.02-0.32-0.04-0.48-0.06c-0.53-1.49,0.78-2.35,1.5-3.4c0.35-0.14,0.7-0.28,1.04-0.42
	C572.57,177.79,571.88,179.09,571.19,180.38z"/>
<path class="st50" d="M585.05,153.7c-0.49,1.48-1.7,2.36-3.18,3.02C582.73,155.55,583.73,154.49,585.05,153.7z"/>
<path class="st2" d="M584.55,147.97c0.11-1.58,1.35-2.51,2.52-3.48C586.64,145.88,585.64,146.95,584.55,147.97z"/>
<path class="st2" d="M580.08,155.84c-0.32,0.29-0.64,0.59-0.96,0.88c0.43-1.26,0.52-2.69,2.1-3.39
	C580.84,154.16,580.46,155,580.08,155.84z"/>
<path class="st56" d="M601.88,170.8c-0.01-0.44-0.02-0.89-0.03-1.33c0.32-0.96,0.56-1.95,1.46-2.65
	C603.15,168.24,602.66,169.56,601.88,170.8z"/>
<path class="st26" d="M580.54,136.44c-0.24,1.64-1.62,2.43-3.04,3.19C578.12,138.27,579.49,137.48,580.54,136.44z"/>
<path class="st18" d="M389.45,186.99c-0.01-0.18-0.02-0.35-0.04-0.53c1.23-0.74,2.48-1.43,3.95-1.75
	C392.54,186.11,390.75,186.21,389.45,186.99z"/>
<path class="st57" d="M373.61,184.4c1.5,0.14,3,0.27,4.5,0.41C376.49,185.69,375.02,185.29,373.61,184.4z"/>
<path class="st23" d="M594.92,146.68c-0.67,1.36-1.97,1.92-3.52,2.16C592.35,147.84,593.63,147.24,594.92,146.68z"/>
<path class="st2" d="M347.96,123.38c0.57-1.19,1.12-2.38,2.62-2.92c-0.72,0.98-1.44,1.97-2.16,2.95
	C348.24,123.59,348.09,123.58,347.96,123.38z"/>
<path class="st18" d="M398.8,181.64c-0.62,1.1-1.44,1.94-3.01,1.79C396.65,182.65,397.68,182.08,398.8,181.64z"/>
<path class="st12" d="M447.22,149.72c-0.27,1.33-1.33,2.05-2.58,2.61C445.1,151.15,446.13,150.41,447.22,149.72z"/>
<path class="st22" d="M419.09,135.73c0.4-1.17,0.67-2.41,2.1-3.01C420.56,133.76,420.31,135.01,419.09,135.73z"/>
<path class="st12" d="M450.21,147.52c-0.78,0.98-1.51,2.01-3.01,2.22C448.06,148.84,448.86,147.88,450.21,147.52z"/>
<path class="st2" d="M568.69,150.93c0.11,0.68-0.09,1.3-0.43,1.89c-0.48,0.32-0.79,0.86-1.5,0.87
	C567.4,152.77,568.04,151.85,568.69,150.93z"/>
<path class="st55" d="M366.74,110.35c1.35,0.1,2.54-0.83,3.93-0.5c-1.16,0.87-2.53,1.01-3.97,0.89
	C366.67,110.61,366.68,110.48,366.74,110.35z"/>
<path class="st2" d="M421.05,117.78c-1.39-0.47-1.92-1.44-1.94-2.69C420.17,115.76,420.47,116.85,421.05,117.78z"/>
<path class="st58" d="M346,126.97c0.16-0.29,0.32-0.58,0.49-0.88c-0.4-0.64,0.26-0.77,0.64-1.04c0.23-0.01,0.39,0.08,0.49,0.26
	c-0.58,0.82-0.42,2.03-1.66,2.51C345.96,127.55,345.98,127.26,346,126.97z"/>
<path class="st31" d="M542.54,145.74c-0.72,1.03-1.75,1.63-3.11,1.77C540.31,146.7,541.29,146.04,542.54,145.74z"/>
<path class="st44" d="M664.5,190.02c0.35-1,0.71-2.01,1.06-3.01c0.06-0.17,0.19-0.21,0.36-0.12c0.1,0.08,0.2,0.16,0.3,0.24
	C665.83,188.17,665.62,189.31,664.5,190.02z"/>
<path class="st2" d="M588.01,143.19c0.38-1.09,0.89-2.08,2.15-2.59C589.66,141.6,589.23,142.65,588.01,143.19z"/>
<path class="st2" d="M353.4,109.84c-0.75,0.96-1.75,1.58-3.07,1.77C351.23,110.85,352.02,109.94,353.4,109.84z"/>
<path class="st31" d="M538.63,148.39c-0.69,0.95-1.45,1.84-2.76,2.19C536.61,149.67,537.3,148.72,538.63,148.39z"/>
<path class="st31" d="M535.16,151.54c-0.39,1.05-0.9,2.03-2.11,2.55C533.48,153.06,533.98,152.07,535.16,151.54z"/>
<path class="st59" d="M333.69,244.45c-0.21-0.19-0.42-0.37-0.63-0.56c0.47-0.66,1.09-1.19,2.02-1.63
	C335.1,243.33,334.36,243.87,333.69,244.45z"/>
<path class="st12" d="M444.68,152.28c-0.13,1.11-0.63,1.96-1.95,2.27C443.18,153.65,443.85,152.9,444.68,152.28z"/>
<path class="st2" d="M572.23,146.7c-0.31,0.5-0.77,0.81-1.42,0.87c0.62-0.76,1.23-1.52,1.85-2.29
	C573.19,145.91,572.92,146.35,572.23,146.7z"/>
<path class="st30" d="M379.57,179.98c1.29,0.88,0.13,2.08,0.51,3.08c-0.17,0.12-0.34,0.24-0.51,0.36
	C379.57,182.27,379.57,181.13,379.57,179.98z"/>
<path class="st2" d="M400.86,193.66c0.62-1.18,1.77-1.41,3.08-1.36C403.04,192.97,402,193.41,400.86,193.66z"/>
<path class="st60" d="M586.95,168.55c-0.11,0.04-0.23,0.06-0.35,0.07c0.01-0.73,0.42-1.29,0.98-1.79c0.18,0.15,0.36,0.29,0.54,0.44
	C588.08,167.95,587.2,168.02,586.95,168.55z"/>
<path class="st2" d="M591.44,148.81c-0.55,0.91-1.21,1.69-2.49,1.79C589.58,149.79,590.33,149.1,591.44,148.81z"/>
<path class="st6" d="M242.18,105.52c0.08,1.08,0.09,2.15-0.37,3.17C241.86,107.63,241.47,106.52,242.18,105.52z"/>
<path class="st18" d="M395.84,183.4c-0.47,1-1.28,1.48-2.53,1.34C394.02,184.09,394.9,183.7,395.84,183.4z"/>
<path class="st41" d="M611.81,147.97c-0.2,0.01-0.39,0.02-0.59,0.04c-0.32-0.74-0.64-1.48-0.97-2.22
	C611.23,146.26,611.68,147.02,611.81,147.97z"/>
<path class="st2" d="M407.63,156.36c0.74-0.04,1.09,0.5,1.58,0.84c0,0,0,0,0,0c0.39,0.42,0.44,0.85,0.04,1.29l-0.06,0.03
	C408.67,157.8,408.15,157.08,407.63,156.36z"/>
<path class="st26" d="M572.23,146.7c0.14-0.47,0.28-0.95,0.43-1.42c0.16-0.15,0.33-0.29,0.49-0.44c0.03,0.51,0.06,1.03,0.53,1.41
	c-0.33,0.29-0.65,0.59-0.98,0.88C572.55,146.98,572.39,146.84,572.23,146.7z"/>
<path class="st2" d="M357.35,108.14c-0.83,0.29-1.66,0.58-2.49,0.87c0.47-0.95,1.53-1.06,2.45-1.37
	C357.32,107.81,357.33,107.97,357.35,108.14z"/>
<path class="st2" d="M587.29,182.66c1.06,0.27,1.72,0.92,2.16,1.78C588.42,184.15,587.73,183.53,587.29,182.66z"/>
<path class="st60" d="M588.51,165.08c-0.33,0.44-0.66,0.87-1,1.31c-0.14-0.9,0.21-1.62,1.01-2.17
	C588.78,164.51,588.8,164.8,588.51,165.08z"/>
<path class="st61" d="M526.76,178.66c0.12,0.8,0.63,1.54,0.4,2.38c-0.54-0.71-1.06-1.44-0.97-2.36
	C526.39,178.68,526.58,178.67,526.76,178.66z"/>
<path class="st53" d="M401.27,123.05c1.11,0.48,1.07,1.36,0.98,2.25C401.7,124.63,401.32,123.9,401.27,123.05z"/>
<path class="st58" d="M347.96,123.38c0.15,0,0.31,0.01,0.46,0.04c0.13,0.77-0.44,1.3-0.81,1.91c-0.1-0.07-0.2-0.14-0.29-0.21
	c-0.13-0.44-0.24-0.87,0.22-1.22C347.68,123.72,347.82,123.55,347.96,123.38z"/>
<path class="st54" d="M577.64,170.34c0.09-0.87,0.7-1.38,1.51-1.75C579.07,169.46,578.42,169.94,577.64,170.34z"/>
<path class="st6" d="M241.81,113.6c0.51,0.91,0.42,1.88,0.36,2.85C241.5,115.56,241.86,114.56,241.81,113.6z"/>
<path class="st6" d="M233.84,108.21c-0.56-0.85-0.47-1.77-0.38-2.69C234.12,106.36,233.79,107.3,233.84,108.21z"/>
<path class="st6" d="M233.46,99.36c-0.07-0.91-0.22-1.84,0.38-2.68C233.79,97.59,234.12,98.53,233.46,99.36z"/>
<path class="st62" d="M310.92,94.99c-0.25,0.01-0.5,0.01-0.75,0.02c-0.36-0.37-0.72-0.74-1.18-1.21
	C310.18,93.71,310.5,94.42,310.92,94.99z"/>
<path class="st41" d="M610.26,145.79c-1-0.06-1.61-0.57-1.98-1.35C609.17,144.63,609.84,145.07,610.26,145.79z"/>
<path class="st2" d="M533.08,154.03c0.03,0.33,0.07,0.65,0.1,0.98c-0.3,0.5-0.5,1.11-1.38,0.9l-0.19-0.06
	C531.8,155.05,532.44,154.54,533.08,154.03z"/>
<path class="st26" d="M584.56,133.5c-0.45,0.76-1.05,1.33-2.11,1.32C583.07,134.28,583.52,133.52,584.56,133.5z"/>
<path class="st2" d="M588.51,165.08c0-0.29,0.01-0.58,0.01-0.86c0.3-0.5,0.61-0.99,0.91-1.49
	C589.55,163.65,589.29,164.45,588.51,165.08z"/>
<path class="st63" d="M263.27,139.32c0.33,0.31,0.27,0.67,0.15,1.01c-0.07,0.2-0.29,0.19-0.34-0.02
	C262.99,139.97,262.88,139.61,263.27,139.32z"/>
<path class="st18" d="M640.32,190.58c0.04-0.16,0.08-0.33,0.12-0.49c0.6,0.54,0.89,1.18,0.85,1.94
	C640.83,191.62,640.3,191.24,640.32,190.58z"/>
<path class="st64" d="M411.07,108.64c-0.8-0.03-1.48-0.23-1.88-0.91C410.02,107.71,410.68,107.96,411.07,108.64z"/>
<path class="st23" d="M596.86,145.72c-0.32,0.84-1.08,0.99-1.94,0.96C595.46,146.2,596.07,145.82,596.86,145.72z"/>
<path class="st0" d="M490.81,157.67c0.73-0.43,1.27-0.99,1.5-1.75c-0.23-1.32,1.01-1.94,1.77-2.69c2.56-2.51,5.69-4.3,9.47-5.01
	c1.9-0.36,3.76-0.3,5.05,1.33c1.45,2.89,0.37,5.5-1.17,8.05c-0.55,0.97-1.29,1.84-1.92,2.77c-0.51,0.69-1.12,1.33-1.48,2.11
	c-2.37,2.62-4.66,5.29-7.37,7.65c-1.44,1.33-3.03,2.47-4.97,3.16c-3.47,1.23-5.91-0.33-6.24-3.58c-0.26-2.54,1.26-4.63,1.58-6.98
	c0.14-0.67,0.49-1.26,0.97-1.79c0.49-0.58,1.08-1.07,1.71-1.53l0,0C490.11,158.83,490.1,158.08,490.81,157.67z"/>
<path class="st65" d="M472.66,159.03c0.32,0.41,1.39-0.06,1.29,0.85c0.45,1.52-1.37,2.43-1.32,3.84c-0.76,1.25-0.75,2.67-1.11,4.01
	c-1.54,1.7-3.3,3.18-5.31,4.45c-0.69,0.43-1.3,0.87-2.21,0.67c-2.34,0.61-4.51,1.71-7.07,1.64c-3.54-0.1-4.96-1.3-4.89-4.39
	c0.02-0.94,0.16-1.89,0.37-2.81c0.94-4.06,1.18-4.15,5.72-3.73c4.01,0.37,8.03,0.56,11.45-1.93c0.76-0.62,1.48-1.27,2.34-1.79
	C472.16,159.56,472.41,159.29,472.66,159.03z"/>
<path class="st66" d="M640.39,150.64c1.37-0.41,2.72-0.95,4.13-1.2c2.47-0.44,3.39,0.51,2.62,2.63c-0.32,0.87-0.9,1.67-1.36,2.5
	c-0.14,1.8-2.1,2.32-3.14,3.49c-0.64,0.23-1.26,0.53-1.98,0.46c-0.11-0.02-0.23-0.04-0.34-0.06c-1.75,0.37-3.51,0.68-5.33,0.56
	c-2.34-0.16-2.54-0.45-1.27-2.12c0.59-0.78,1.23-1.52,1.84-2.28C636.23,152.39,638.14,151.35,640.39,150.64z"/>
<path class="st67" d="M470.47,153.7c-0.19,0.24-0.38,0.47-0.58,0.71c-1.8,3.25-7.42,5.53-11.45,4.83c-2.13-0.37-2.35-0.68-1.31-2.38
	c0.39-0.64,0.91-1.21,1.31-1.85c1.33-1.41,2.84-2.65,4.43-3.82c0.65-0.35,1.17-0.87,1.87-1.18c1.15-0.55,2.34-1.05,3.63-1.25
	c2.81-0.44,4.01,0.63,3.57,3.13c-0.08,0.43-0.2,0.85-0.43,1.23C471.27,153.45,470.86,153.57,470.47,153.7z"/>
<path class="st11" d="M505,160.2c0.52-0.84,1.03-1.68,1.55-2.52c1.13-1.79,2.71-3.4,2.24-5.73c-0.16-0.79-0.22-1.55-0.76-2.21
	c-2.92-1.65-5.68-0.61-8.37,0.49c-3.06,1.25-5.08,3.61-7.34,5.7c-0.5,0.22-1,0.45-1.77,0.79c0.58-2.54,2.68-3.83,4.45-5.18
	c2.27-1.74,4.72-3.3,7.75-4.02c2.52-0.6,4.66-0.39,6.5,1.37c1.75,1.67,2.15,3.64,1.19,5.64c-1.27,2.64-3.05,5.04-5.4,7.07
	c-0.08-0.07-0.16-0.15-0.24-0.22C504.59,160.93,504.76,160.56,505,160.2z"/>
<path class="st9" d="M488.73,161.11c-0.32,0.45-0.64,0.89-0.96,1.34c-0.91,2.45-2.31,4.77-2.03,7.5c0.26,2.59,2.52,4.12,5.28,3.17
	c2.21-0.76,4.28-1.82,5.6-3.7c2.29-2.48,4.58-4.95,6.87-7.43c0.51-0.16,0.87-0.72,1.54-0.42c0,0,0,0,0,0
	c0.15,1.09-0.72,1.74-1.38,2.46c-3.31,3.59-6.56,7.23-11,9.85c-1.58,0.93-3.33,1.33-4.83,0.46c-1.71-0.99-3.61-2.07-3.55-4.37
	c0.1-4.01,1.58-7.52,4.48-10.58C489.22,159.97,489.1,160.54,488.73,161.11z"/>
<path class="st11" d="M464,172.85c2.37-1.62,4.81-3.18,6.83-5.17c1.04-0.43,0.09-2.01,1.6-2.16c0,0,0.01,0.01,0.01,0.01
	c0.3,1.66-0.37,3.02-1.71,4.12c-3.38,2.77-6.72,5.56-11.55,6.29c-5.01,0.76-9.63-1.4-9-6.71c0.23-1.96,0.65-3.81,2.26-5.4
	c-0.32,1.54-0.62,3.09-0.95,4.63c-1.06,4.91,2.07,7.63,7.58,6.48C460.84,174.56,462.79,174.36,464,172.85z"/>
<path class="st26" d="M638.4,182.12c-4.9,1.94-9.91,3.53-15.39,3.08c-5.31-0.43-9.58-2.34-10.3-7.85c0.59,0.29,1.05,0.67,1.34,1.23
	c2.15,4.18,7.83,6.73,12.76,5.58c3.68-0.86,7.6-1,11.03-2.72C638.44,181.14,639.42,181.1,638.4,182.12z"/>
<path class="st26" d="M654.19,183.48c0.8,1.28-0.65,1.23-1.26,1.56c-2.14,1.15-4.88,0.89-6.49-0.54c-2.28-2.03-2.87-4.32-1.45-6.44
	c1.76-2.63,3.64-5.21,5.5-7.78c0.37-0.52,0.75-1.21,1.72-0.81c0.52,0.68-0.13,1.18-0.33,1.75c-0.11,0.18-0.25,0.35-0.41,0.5
	c-0.57,1.86-1.94,3.27-3.34,4.66c-0.24,0.44-0.51,0.88-0.78,1.31c-1.24,1.34-1.85,2.75-0.64,4.37c0.15,0.15,0.27,0.32,0.38,0.49
	c0.98,1.67,2.6,1.63,4.37,1.34C652.37,183.75,653.16,182.98,654.19,183.48z"/>
<path class="st15" d="M464.54,150.63c-0.27,0.54-0.68,0.91-1.39,0.91c-1.73,1-3.15,2.29-4.35,3.77c-1.01,0.49-0.65,2.5-2.66,1.88
	c-0.01-1.4,1.22-2.25,2.09-3.1c2.71-2.65,5.78-4.94,9.63-6.23c1.4-0.47,2.85-0.58,3.79,0.62c0.8,1.02,2.36,1.98,0.95,3.57
	c-0.32,0.36-0.2,0.99-0.38,1.47c-0.42,1.13-1.07,0.83-1.75,0.18c0.08-0.16,0.16-0.33,0.23-0.49c1.47-1.03,1.46-2.45,0.61-3.61
	c-0.81-1.11-2.25-0.8-3.53-0.32C466.69,149.69,465.48,149.91,464.54,150.63z"/>
<path class="st68" d="M642.3,157.52c1.16-0.99,2.32-1.97,3.48-2.96c2.17-0.74,1.98-2.39,2.02-3.99c0.01-0.45-0.29-1.19,0.53-1.23
	c0.86-0.04,0.84,0.69,0.93,1.27c0.29,1.92-0.94,3.35-2.14,4.67c-1.32,1.45-2.89,2.74-4.77,3.66c-0.22-0.19-0.56-0.25-0.68-0.54
	C641.61,157.97,642.12,157.84,642.3,157.52z"/>
<path class="st15" d="M640.39,150.64c-1.61,1.32-3.23,2.65-4.84,3.97c-2.17,0.83-2.93,2.69-3.97,4.44
	c-0.66-2.29,4.61-7.83,8.29-8.86l0,0.01C640.05,150.34,640.22,150.49,640.39,150.64z"/>
<path class="st12" d="M438.4,162.48c1.41-1.6,1.66-3.73,3.14-5.3c0.41-0.44,0.61-1.02,1.24-1.3c0.17,0,0.33,0,0.5,0
	c-1.46,2.81-2.74,5.71-4.45,8.4c-0.71,1.12,0.38,2.78-1.47,3.42c-0.13,0.29-0.29,0.3-0.48,0.03
	C437.4,165.99,437.9,164.24,438.4,162.48z"/>
<path class="st34" d="M456.13,157.19c1.47-0.15,1.69-1.41,2.47-2.18c0.21-0.2,0.41-0.19,0.59,0.03c-0.52,0.73-0.94,1.53-1.57,2.18
	c-1.36,1.38-0.52,1.62,0.97,1.76c4.79,0.44,8.39-1.39,11.31-4.57c-1.02,3.09-4.05,4.01-6.98,4.86c-1.49,0.43-3.09,0.63-4.82,0.31
	C456.34,159.24,455.96,158.52,456.13,157.19z"/>
<path class="st69" d="M572.21,176.91c-0.5,1.13-1,2.27-1.5,3.4c-0.54,0.85-1,1.72-0.95,2.73c-0.76,0.75-0.42,1.84-1.01,2.64
	c-0.32,0.29-0.65,0.58-0.97,0.87c-0.5,0.14-1,0.28-1.5,0.42c-0.16-0.14-0.33-0.28-0.49-0.43c2.04-1,2.25-2.93,2.89-4.6
	c0.66-1.74,1.79-3.24,2.73-4.84C571.56,176.82,571.85,176.7,572.21,176.91z"/>
<path class="st31" d="M610.72,170.77c2.26-3.16,3.36-6.77,5.03-10.16c-0.91,3.69-0.87,7.74-5.01,10.17
	C610.74,170.79,610.72,170.77,610.72,170.77z"/>
<path class="st31" d="M531.79,155.91c0.46-0.3,0.92-0.6,1.38-0.9c0.33,0,0.66,0,0.99,0c-2.46,1.82-2.67,4.73-4.3,6.95
	c-0.35,0.48-0.47,1.08-1.11,1.37c-0.31-0.28-0.33-0.57-0.03-0.86C528.91,159.97,531.23,158.26,531.79,155.91z"/>
<path class="st70" d="M641.85,158.51c0.16,0.15,0.33,0.3,0.49,0.44c-2.44,0.74-4.68,2.13-7.46,1.76c-0.78-0.1-1.71,0.13-2.01-1.06
	c2.58-0.07,5.37,0.89,7.45-1.19c0,0-0.02,0.01-0.02,0.01C640.82,158.25,641.34,158.17,641.85,158.51z"/>
<path class="st15" d="M639.87,150.19c1.93-2.4,5.15-3.23,7.39-1.58C644.35,148.23,642.2,149.48,639.87,150.19
	C639.87,150.19,639.87,150.19,639.87,150.19z"/>
<path class="st71" d="M654.65,172.63c0.05,1.29,0.1,2.58,0.14,3.88c0.48,1.42,1.17,2.84,0.25,4.33c-0.13,0.56-0.26,1.11-0.39,1.67
	c-0.25,0.22-0.49,0.22-0.74-0.01c-1.1-1.17-0.19-2.54-0.48-3.79c-0.45-1.92-0.13-3.91-0.63-5.84c-0.22-0.85-0.08-1.74,0.66-2.45
	c0.63-0.32,0.88-0.02,0.96,0.49C654.52,171.48,654.29,172.08,654.65,172.63z"/>
<path class="st39" d="M654.09,182.54c0.19-0.01,0.37-0.02,0.56-0.04c-0.15,0.33-0.31,0.65-0.46,0.98c-1.8,1.13-3.74,1.74-5.93,1.06
	c-1.01-0.32-1.91-0.84-1.89-1.99c0.41-0.15,0.84-0.13,1.19,0.07c1.71,1,3.39,0.89,5.1,0.02
	C653.09,182.42,653.59,182.34,654.09,182.54z"/>
<path class="st72" d="M654.65,172.63c-0.62-0.65-0.16-1.68-1-2.26c-0.77,0.32-1.22,1.29-2.33,0.91c-0.12-0.77,0.57-1.22,0.9-1.82
	c1.77-0.79,2.59-0.32,2.47,1.44C654.65,171.48,654.66,172.05,654.65,172.63z"/>
<path class="st73" d="M591.57,130.54c1.45-0.02,2.91-0.05,4.36-0.04c1.26,0.01,2.2,0.43,2.4,1.67c-0.31-0.12-0.62-0.25-0.93-0.37
	c-0.16-0.15-0.33-0.29-0.49-0.44c-1.43-0.57-3.02,0.13-4.45-0.42C592.16,130.8,591.86,130.67,591.57,130.54z"/>
<path class="st74" d="M436.01,175.71c0-1.56,0-3.11,0-4.67c0.08,0,0.15,0,0.23,0c0,1.58,0,3.16,0,4.74
	C436.16,175.75,436.09,175.73,436.01,175.71z"/>
<path class="st75" d="M577.64,159.83c0.31,0.13,0.62,0.26,0.93,0.39c-0.29,0.65-0.5,1.47-1.43,1.5c-0.67,0.03-0.37-0.65-0.47-1.02
	C576.75,160.2,577.06,159.9,577.64,159.83z"/>
<path class="st76" d="M560.35,184.36c-0.97-1.63-0.24-3.34,0-5.02C560.35,181.01,560.35,182.68,560.35,184.36
	C560.35,184.36,560.35,184.36,560.35,184.36z"/>
<path class="st39" d="M655.04,180.83c0.47-1.47-0.15-2.89-0.25-4.33C655.87,177.9,656.15,179.33,655.04,180.83z"/>
<path class="st23" d="M601.35,145.37c1.65-0.68,3.29-0.68,4.94,0C604.64,145.37,602.99,145.37,601.35,145.37z"/>
<path class="st18" d="M471.92,159.83c-0.46,0.93-1.29,1.47-2.34,1.79c-0.2-0.02-0.39-0.05-0.59-0.07
	C469.95,160.96,470.65,160.02,471.92,159.83z"/>
<path class="st26" d="M592.45,130.93c1.48,0.14,3.05-0.4,4.45,0.42c-1.48,0-2.97,0-4.45,0
	C592.45,131.21,592.45,131.07,592.45,130.93z"/>
<path class="st77" d="M565.41,149.49c0-0.73,0-1.46,0-2.45C566.02,148.02,565.67,148.77,565.41,149.49z"/>
<path class="st78" d="M658.78,159.43c0.41,1.34,0.45,2.08,0.16,2.95C658.43,161.57,658.66,160.84,658.78,159.43z"/>
<path class="st79" d="M488.73,161.11c0.01-0.57,0.01-1.14,0.02-1.72c0.33,0,0.65,0,0.98,0C489.5,160.02,489.45,160.72,488.73,161.11
	z"/>
<path class="st15" d="M627.44,170.87c0.03,0.85,0.05,1.69,0.08,2.54C626.83,172.58,626.82,171.73,627.44,170.87z"/>
<path class="st80" d="M436.9,167.75c0.16-0.02,0.32-0.03,0.48-0.03c-0.03,0.54-0.06,1.08-0.1,1.79
	C436.66,168.84,436.94,168.27,436.9,167.75z"/>
<path class="st18" d="M464.04,162.02c-0.72,0.62-1.63,0.38-2.47,0.44C462.28,161.84,463.19,162.07,464.04,162.02z"/>
<path class="st79" d="M490.81,157.67c-0.09,0.71-0.55,1.24-1.08,1.73C489.68,158.62,489.88,157.96,490.81,157.67z"/>
<path class="st81" d="M527.27,166.83c0.05-0.75-0.18-1.54,0.48-2.18C527.7,165.39,527.96,166.19,527.27,166.83z"/>
<path class="st82" d="M528.74,162.47c0.01,0.29,0.02,0.58,0.03,0.86c-0.07,0.25-0.17,0.72-0.2,0.72c-0.53-0.06-0.25-0.48-0.37-0.74
	C528.37,163.04,528.56,162.75,528.74,162.47z"/>
<path class="st83" d="M409.25,158.49c-0.01-0.43-0.03-0.86-0.04-1.29c1.78,1.27,2.77,2.85,3,4.94c0.45,4.08-0.96,7.68-3.28,11.14
	c-0.58-1.05,0.41-1.94,0.31-2.92c1.47-1.35,0.73-3.4,1.93-4.84c0.42-1.31,0.4-2.63,0-3.94
	C410.22,160.71,410.57,159.19,409.25,158.49z"/>
<path class="st26" d="M376.61,199.26c-3.23,0.81-6.45,1.2-9.74,0.12c-1.73-0.57-2.76-1.47-2.61-3.19c3.11,3.45,6.96,3.92,11.37,2.25
	c0.28-0.11,0.65-0.04,0.98-0.06C376.5,198.67,376.24,198.96,376.61,199.26z"/>
<path class="st84" d="M403.47,125.89c1.89,4.09,1.7,8.24,0.15,12.39C404.93,134.15,404.37,130.05,403.47,125.89z"/>
<ellipse class="st74" cx="342.29" cy="139.02" rx="0.16" ry="4.93"/>
<path class="st85" d="M381.06,108.57c-3.13,0-6.26,0-9.38,0c0-0.14,0-0.29,0-0.43c3.13,0,6.25,0,9.38,0
	C381.06,108.28,381.06,108.43,381.06,108.57z"/>
<path class="st31" d="M382.04,103.76c1.86,0.04,3.8-0.27,5.43,0.87C385.67,104.32,383.58,105.39,382.04,103.76z"/>
<path class="st86" d="M344.01,128.29c0.16,0,0.32,0,0.49,0c0.35,1.8-1.19,3.25-1.24,4.99C342.86,131.54,343.44,129.92,344.01,128.29
	z"/>
<path class="st31" d="M378.09,103.76c0.82,0,1.65,0,2.47,0c-0.68,1.11-1.89,0.82-2.96,0.87C377.28,104.13,377.81,104,378.09,103.76z
	"/>
<path class="st31" d="M378.09,103.76c-0.16,0.29-0.33,0.58-0.49,0.87c-0.66,0-1.32,0-1.98,0
	C376.28,103.97,377.13,103.75,378.09,103.76z"/>
<path class="st87" d="M333.27,153.17c0.56,0.61,0.44,1.15,0.12,1.86C333.16,154.35,332.73,153.84,333.27,153.17z"/>
<path class="st8" d="M347.96,153.7c-0.73-0.13-1.39-0.31-1.31-1.34C347.37,152.67,347.84,153.03,347.96,153.7
	C347.97,153.69,347.96,153.7,347.96,153.7z"/>
<path class="st88" d="M343.45,145.85c-0.62-0.5-0.33-0.88-0.37-1.4C343.67,144.96,343.43,145.33,343.45,145.85z"/>
<path class="st9" d="M368.71,178.23c-2.48-2.92-3.25-6.41-3.86-9.87c-0.32-1.85-0.71-3.69-1.04-5.54c0.55-0.95-0.16-2.04,0.44-2.98
	c0.91,0.91,0.6,2.1,0.71,3.12C365.54,168.19,367.27,173.17,368.71,178.23z"/>
<path class="st88" d="M364.25,159.84c-0.14,0.99,0.38,2.07-0.44,2.98c-0.02-0.27-0.04-0.53-0.07-0.8
	C363.83,161.28,363.56,160.47,364.25,159.84z"/>
<path class="st89" d="M367.25,123.86c0.11-0.86-0.27-1.78,0.47-2.55C367.65,122.17,368.02,123.1,367.25,123.86z"/>
<path class="st90" d="M461.57,123.45c2.12,0,4.25,0.01,6.37,0.01c4.01,0,4.01,0,3.98,3.49c-0.18-0.14-0.54-0.3-0.52-0.41
	c0.56-2.79-1.45-2.62-3.6-2.68C465.73,123.81,463.56,124.51,461.57,123.45z"/>
<path class="st91" d="M471.38,119.13c-2.66,0.86-5.42,0.22-8.13,0.39c-1.37,0.08-2.75,0.01-4.12,0c1.67-0.87,3.49-0.34,5.24-0.4
	C466.7,119.02,469.04,119.11,471.38,119.13z"/>
<path class="st92" d="M590.95,109.46c-2.87-0.81-3.42-0.49-3.43,2.09c-0.02,4.08,0.08,8.17-0.05,12.25
	c-0.06,1.86,0.72,2.4,2.72,2.33c3.36-0.11,6.74-0.03,10.11-0.04c0.9,0,1.97,0.09,1.95-1.1c-0.02-1.2-1.11-1.06-1.99-1.07
	c-3.18-0.02-6.37-0.01-9.55-0.01c0-0.19,0-0.38,0-0.57c3.83,0,7.67-0.18,11.48,0.08c1.8,0.12,0.27,1.79,0.77,2.73
	c0.42,0.78-0.57,0.5-1.1,0.49c-4.35-0.04-8.71-0.15-13.06-0.05c-1.49,0.03-1.8-0.35-1.79-1.55c0.06-4.3,0.02-8.6,0.02-12.9
	c0-3.58,0-3.58,3.96-3.52C591.26,108.91,591.26,109.19,590.95,109.46z"/>
<path class="st93" d="M590.95,109.46c0.01-0.28,0.03-0.56,0.04-0.85c1.04,3.84,0.15,7.71-0.04,11.56
	C590.95,116.61,590.95,113.04,590.95,109.46z"/>
<path class="st94" d="M490.59,109.45c0.53,0.44,1.07,0.88,1.6,1.32c1.32,4.58,0.91,9.25,1.02,13.9c0.04,1.62-0.4,2.37-2.46,2.35
	c-2.06-0.01-2.32-0.8-2.04-2.29c0.13-0.71,0.03-1.46,0.02-2.18c-0.02-1.41-0.14-2.93,2.44-0.94c0-3.43,0.05-6.47-0.03-9.5
	c-0.03-1.02-0.79-1.98-1.92-1.99c-3.58-0.02-7.17,0.15-10.75,0.3c-0.43,0.02-0.84,0.34-1.82,0.78c2.83,0,5.05,0.11,7.24-0.03
	c3.2-0.19,5.04,1.43,6.47,3.6c0.87,1.32-0.21,2.49-2.63,3c-2.3-0.7-4.61-0.7-6.91,0c-1.14-0.55-1.8-1.44-2.25-2.5
	c-0.17-0.41-0.6-0.8-1.12-0.71c-0.61,0.1-0.55,0.65-0.57,1.08c-0.09,2.04-0.04,4.07,0.43,6.2c-0.05,0.72,0.41,1.26,0.5,1.89
	c-0.03-0.69-0.73-1.26-0.5-1.89c0.88-0.15,1.61,0.02,2.02,0.74c0.41,1.47,0.4,2.93,0,4.4c-0.74,0-1.48,0-2.21-0.02
	c-1-0.02-1.36-0.38-1.35-1.36c0.09-5.53,0.08-11.05,0.1-16.58c3.73-0.58,7.51,0.11,11.25-0.39
	C488.29,108.91,489.44,109.18,490.59,109.45z"/>
<path class="st95" d="M480.83,117.77c1.54-1.26,5.37-1.26,6.91,0C485.44,117.77,483.13,117.77,480.83,117.77z"/>
<path class="st96" d="M487.13,108.63c-1.85,0.79-3.81,0.27-5.71,0.37c-1.84,0.09-3.69,0.02-5.54,0.02
	C479.6,108.11,483.39,108.79,487.13,108.63z"/>
<path class="st97" d="M479.42,120.62c-0.19,0.04-0.39,0.08-0.58,0.12c0.52-1.09,1.63-0.75,2.55-0.77c1.86-0.04,3.71-0.01,5.57,0.13
	C484.47,120.68,481.89,120.02,479.42,120.62z"/>
<path class="st98" d="M479.35,126.97c0-1.47,0-2.93,0-4.4C480.09,124.04,480.12,125.51,479.35,126.97z"/>
<path class="st99" d="M525.82,111.54c1.78-0.55,3.25-0.24,4.66-0.34c0.73-0.05,1.63,0.01,1.55-0.96c-0.06-0.79-0.87-0.77-1.52-0.77
	c-3.46-0.01-6.91-0.02-10.37,0c-0.72,0-1.63-0.06-1.61,0.91c0.01,0.81,0.82,0.73,1.46,0.84c0.88,0.15,2.54-0.44,2.46,0.66
	c-0.08,1.15-1.77,0.47-2.74,0.64c-2.7,0.47-1.98-1.4-2.19-2.57c-0.28-1.57,1.07-1.34,2.1-1.35c4.03-0.02,8.07-0.01,12.1-0.01
	c1.05,0,2.2,0.05,1.79,1.37c-0.29,0.94,0.92,2.75-1.7,2.57C529.91,112.4,527.94,112.72,525.82,111.54z"/>
<path class="st100" d="M526.75,126.54c-3.44,0.07-3.44,0.07-3.44-2.95c0-2.68-0.02-5.37,0.01-8.05c0.01-0.69-0.26-1.45,0.65-2.23
	c0.55,1.02,0.29,2.01,0.31,2.93c0.04,2.54,0.11,5.08-0.02,7.62c-0.09,1.68,0.51,2.49,2.49,2.23
	C526.88,126.24,526.88,126.39,526.75,126.54z"/>
<path class="st101" d="M526.75,126.54c0-0.15,0-0.3,0-0.45c-0.09-3.95,0.27-7.92-0.23-11.84c0.26,0.08,0.79,0.25,1.33,0.41
	c0,0-0.02-0.03-0.02-0.03c-0.03,3.53-0.02,7.06-0.11,10.58C527.7,125.72,528.32,126.83,526.75,126.54z"/>
<path class="st4" d="M437.88,114.69c-0.74-0.3-1.55-0.5-2.21-0.91c-1.14-0.7-1.27-1.87-1.11-2.92c0.17-1.11,1.27-1.45,2.44-1.4
	c3.36,0.13,6.71-0.25,10.08,0.34c2.26,0.39,3.07,1.61,3.09,3.34c0.02,2.63,0.27,5.21,0.89,7.8c0.62,2.62-0.85,4.27-3.75,4.82
	c-3.67,0.7-7.38,0.21-11.06,0.32c-1.38,0.04-1.96-0.73-1.82-1.84c0.37-2.82,0.03-5.64-0.02-8.46c-0.02-1.32,0.6-1.74,1.66-0.67
	c2.46,2.48,5.68,1.83,8.7,1.71c1.7-0.07,3.47-0.95,3.29-2.64c-0.16-1.54-1.63-2.79-3.5-2.91c-2.85-0.17-5.72-0.04-9.13-0.04
	c1.43,1.17,2.66,1.29,3.94,1.3c1.89,0,3.79-0.05,5.67,0.04c1.75,0.09,2.06,1.18,1.41,2.33c-0.68,1.21-2.2,1.32-3.48,1.09
	C441.25,115.67,438.89,117.17,437.88,114.69c2.08-0.49,4.32,0.6,6.34-0.57C442.09,114.06,439.87,113.09,437.88,114.69z"/>
<path class="st102" d="M561.79,109.43c0.06,3.07,0.06,3.1-3.48,3.07c-3.28-0.03-6.58,0.25-9.82-0.42c-0.23-1.4,1-0.83,1.61-0.85
	c2.84-0.06,5.69-0.02,8.53-0.03c0.86-0.01,1.87,0.2,2.2-0.87C561.27,110.11,560.87,109.22,561.79,109.43z"/>
<path class="st103" d="M561.79,109.43c-0.32,0.3-0.63,0.59-0.95,0.89c0-0.29,0-0.58-0.01-0.87c-4.77-0.36-9.54-0.36-14.31,0
	c-0.01,5.84-0.01,11.67-0.02,17.51c-0.57-0.06-0.86-0.36-0.9-0.85c0.3-5.56,0.29-11.11,0-16.67c0.14-0.76,0.77-0.84,1.47-0.84
	c4.41,0,8.83,0,13.24,0C561.01,108.6,561.63,108.69,561.79,109.43z"/>
<path class="st104" d="M550.97,116.03c2.13,0,4.26,0,6.39,0c3.48,0,3.48,0,3.47,3.08c-0.34,0.25-0.66,0.24-0.98-0.03
	c0.55-1.67-0.31-2.23-2.09-2.18c-1.61,0.05-3.23,0.01-4.84,0.01C552.11,116.89,551.24,116.97,550.97,116.03z"/>
<path class="st102" d="M546.53,109.45c1.69-0.88,3.55-0.43,5.3-0.4c3,0.07,6.05-0.52,9.01,0.39
	C556.07,109.45,551.3,109.45,546.53,109.45z"/>
<path class="st91" d="M559.84,119.07c0.33,0.01,0.65,0.02,0.98,0.03c-0.16,0.14-0.32,0.28-0.47,0.42c-3.13,0-6.25-0.01-9.37-0.01
	C553.88,118.61,556.89,119.32,559.84,119.07z"/>
<path class="st4" d="M579.06,123.49c1.42-0.29,0.9-1.05,0.55-1.77c0.48-1.46-0.24-2.9-0.04-4.38c0.18-1.37,0.01-2.77,0.05-4.15
	c0.02-0.86-0.05-2.14,1.1-2.13c1.44,0.01,0.81,1.35,0.83,2.1c0.08,3.28-0.01,6.56,0.05,9.84c0.03,1.82-0.8,2.71-2.92,2.67
	c-2.71-0.05-5.43,0.03-8.14-0.02c-2.6-0.05-3.75-1.09-3.77-3.35c-0.03-3.57-0.03-7.14,0.01-10.72c0.01-0.73-0.39-1.91,0.89-1.94
	c1.51-0.03,1.02,1.25,1.04,2.02c0.06,2.55,0.1,5.11,0,7.65c-0.08,2.14,1.08,3.53,3,4.6C574.13,123.32,576.65,124.06,579.06,123.49z"
	/>
<path class="st105" d="M578.18,109.4c0.95-1.43,2.46-0.86,3.68-0.62c1.11,0.23,0.7,1.34,0.7,2.08c0.03,4.71,0.03,9.41,0.01,14.12
	c0,0.75,0.3,1.67-0.94,1.97c0.94-5.32,0.31-10.67,0.43-16.01C582.09,108.97,581.44,108.77,578.18,109.4z"/>
<path class="st106" d="M579.06,123.49c-2.4,0.84-4.9,0.28-7.34,0.42c0.16-0.15,0.32-0.3,0.48-0.45
	C574.49,123.47,576.78,123.48,579.06,123.49z"/>
<path class="st2" d="M374.1,163.78c0,2.33,0,4.66,0,6.99C373.38,168.44,373.38,166.11,374.1,163.78z"/>
<path class="st107" d="M377.09,138.41c-0.12,1.01,0.32,2.1-0.47,3.02C376.73,140.42,376.25,139.33,377.09,138.41z"/>
<path class="st94" d="M540.59,117.55c0,2.18,0.01,4.37,0,6.55c0,0.96,0.12,1.99-1.53,1.97c-1.47-0.02-1.43-0.94-1.43-1.84
	c0-4.37,0.01-8.74-0.01-13.11c-0.01-1.08,0.34-1.94,1.68-2c1.59-0.08,1.26,1.07,1.27,1.87
	C540.62,113.18,540.59,115.37,540.59,117.55z"/>
<path class="st2" d="M371.05,103.72c7.17-1.37,14.33-1.16,21.5,0C385.38,103.39,378.21,103.01,371.05,103.72z"/>
<path class="st2" d="M366.58,104.59c1.33-0.43,2.65-0.9,4.11-0.84C369.47,104.6,368.05,104.7,366.58,104.59z"/>
<path class="st4" d="M510.46,121.71c0-3.49,0.04-6.98-0.01-10.46c-0.02-1.29,0.49-1.93,1.99-1.79c0.41,5.4,0.41,10.8,0,16.21
	c-2.67,0.93-5.46,0.23-8.18,0.43c-0.89,0.07-1.79,0.01-2.69,0c-0.6-0.39-1.62-0.03-1.97-0.87c-1.19-0.41-1.39-1.68-2.46-2.2
	c-0.58-4.27-0.12-8.56-0.25-12.83c-0.03-1.1,0.78-1.52,1.9-1.58c1.36-0.07,1.95,0.6,1.99,1.72c0.09,2.26,0,4.51,0.05,6.77
	c0.03,1.3-0.19,2.62,0.2,3.91c0.54,0.5,0.82,1.19,1.5,1.58c0.34,0.14,0.67,0.27,1.01,0.41c0.12,0.14,0.27,0.25,0.44,0.35
	c1.9,0.19,3.8,0.22,5.69-0.02C510.74,123.09,510.16,122.23,510.46,121.71z"/>
<path class="st42" d="M512.44,126.97c1.23,0.03,1.48-0.63,1.47-1.55c-0.02-5.08-0.02-10.16,0-15.25c0.01-1.08-0.46-1.62-1.73-1.58
	c-1.06,0.03-2.13,0-3.19-0.01c1.43-0.83,3.01-0.35,4.52-0.35c1,0,0.95,0.82,0.95,1.49c0,5.38,0,10.77,0,16.15
	c0,0.74,0.02,1.62-1.14,1.59c-4.25-0.11-8.53,0.48-12.74-0.42c-0.39-0.08-0.73-0.31-1.1-0.47c0.86-0.01,1.71-0.02,2.57-0.04
	c2.57,0.47,5.17,0.09,7.74,0.22C510.69,126.81,511.6,126.56,512.44,126.97z"/>
<path class="st42" d="M502.54,122.59c-0.69-0.03-0.99-0.56-1.46-0.88c-0.93-1.27-0.42-2.69-0.48-4.04c-0.09-2.18-0.09-4.37,0-6.55
	c0.07-1.68-0.3-2.76-2.57-2.25c-0.5,0.11-0.97,0.01-1.39-0.27c-0.17-0.01-0.34-0.03-0.51-0.04c1.43-0.82,3.02-0.35,4.53-0.36
	c1.15-0.01,1.01,0.95,1.01,1.67c0.01,3.13,0.04,6.25-0.02,9.38C501.63,120.46,501.87,121.56,502.54,122.59z"/>
<path class="st42" d="M508.9,109c0.93,0.86,0.55,1.94,0.56,2.92c0.03,3.14-0.01,6.27-0.02,9.41c-0.78-0.61-0.61-1.44-0.61-2.21
	C508.83,115.74,508.87,112.37,508.9,109z"/>
<path class="st42" d="M503.55,123.46c0-0.15,0-0.31,0-0.46c1.54-0.03,3.09-0.17,4.62-0.07c1.67,0.11,1.77-0.52,1.24-1.63
	c0.35,0.13,0.7,0.27,1.05,0.4c1.03,0.87,1.09,1.52-0.52,1.77C507.81,123.81,505.68,123.84,503.55,123.46z"/>
<path class="st108" d="M356.74,158.37c0,1.13,0,2.26,0,3.39c-0.08,0-0.16,0-0.24,0c0-1.15,0-2.29,0-3.44
	C356.58,158.34,356.66,158.35,356.74,158.37z"/>
<path class="st2" d="M665.93,186.89c-0.12,0.05-0.24,0.09-0.36,0.12c0.94-3.53,0.25-7.06,0.05-10.59
	C666.98,179.88,666.81,183.37,665.93,186.89z"/>
<path class="st109" d="M496.64,108.62c5.24-0.06,4.36-0.31,4.42,3.95c0.04,3.05,0.01,6.1,0.02,9.15c-1.48-0.07-0.95-1.11-0.96-1.75
	c-0.06-2.97-0.01-5.95-0.04-8.92c-0.01-0.8,0.35-1.95-1.21-1.92c-1.31,0.02-1.75,0.83-1.75,1.94c0.03,3.99,0.02,7.98,0.02,11.96
	c-0.99-0.35-0.47-1.11-0.48-1.65C496.62,117.12,496.64,112.87,496.64,108.62z"/>
<path class="st110" d="M512.44,125.66c0-5.4,0-10.8,0-16.21c0.64,0.61,0.49,1.36,0.49,2.08c0.01,4.01,0.01,8.03,0,12.04
	C512.93,124.3,513.07,125.05,512.44,125.66z"/>
<path class="st110" d="M512.44,126.97c-3.45-0.22-6.96,0.51-10.37-0.43C505.52,126.76,509.02,126.04,512.44,126.97z"/>
<path class="st110" d="M499.6,125.22c0.66,0.29,1.32,0.58,1.97,0.87C500.77,126.06,499.85,126.24,499.6,125.22z"/>
<path class="st2" d="M472.43,165.52c-0.75,0.6-0.3,1.89-1.6,2.16c0.09-1.44,0.72-2.72,1.55-3.93c0.19-0.28,0.37-0.27,0.54,0.01
	C472.76,164.35,472.59,164.94,472.43,165.52z"/>
<path class="st111" d="M472.92,163.77c-0.18,0-0.36-0.01-0.54-0.01c0.14-1.41,1.11-2.56,1.56-3.88c0.16,0.02,0.31,0.03,0.47,0.05
	C474.45,161.37,473.12,162.4,472.92,163.77z"/>
<path class="st2" d="M475.26,158.47c0.39-0.81,0.78-1.63,1.59-2.21C476.57,157.14,476.73,158.27,475.26,158.47z"/>
<path class="st2" d="M347.54,123.89c-0.07,0.41-0.15,0.81-0.22,1.22c-0.28,0.33-0.55,0.66-0.83,0.99
	C345.74,124.95,347.03,124.57,347.54,123.89z"/>
<path class="st102" d="M545.6,109.44c0.91,2.64,0.39,5.34,0.37,8.01c-0.01,2.88,0.57,5.81-0.38,8.66
	C545.6,120.55,545.6,115,545.6,109.44z"/>
<path class="st2" d="M422.03,126.97c-0.07,0.89,0.3,1.84-0.47,2.63C421.65,128.72,421.28,127.77,422.03,126.97z"/>
<path class="st112" d="M411.17,161.58c0.03-0.07,0.04-0.14,0.09-0.2c0.05-0.06,0.12-0.09,0.18-0.13c0.51,1.59,0.24,3.22,0.11,4.81
	c-0.03,0.34-0.27-0.17-0.37-0.33c-0.03-0.06-0.02-0.14-0.02-0.21C411.17,164.21,411.17,162.9,411.17,161.58z"/>
<path class="st2" d="M568.75,185.68c0.06-0.96-0.28-2.05,1.01-2.64C569.67,184,569.84,185.03,568.75,185.68z"/>
<path class="st113" d="M565.78,186.99c-0.81,0.56-1.63,0.56-2.45,0C564.15,186.99,564.96,186.99,565.78,186.99z"/>
<path class="st2" d="M496.62,169.43c-1.3,2.67-3.96,3.85-6.87,4.3c-2.51,0.39-4.47-1.77-4.47-4.43c0-2.5,0.88-4.78,2.49-6.84
	c0.1,2.36-1.81,4.28-1.66,6.72c0.21,3.55,2.77,4.97,6.24,3.11C493.86,171.46,495.2,170.39,496.62,169.43z"/>
<path class="st114" d="M508.02,149.73c1.92,1.54,1.26,3.44,0.67,5.16c-0.35,1.03-1.02,2.1-2.15,2.78
	C507.9,155.15,509.24,152.63,508.02,149.73z"/>
<path class="st2" d="M505.03,161.58c-0.51,0.14-1.02,0.28-1.54,0.42c0.5-0.6,1.01-1.2,1.51-1.8
	C505.01,160.66,505.02,161.12,505.03,161.58z"/>
<path class="st2" d="M641.85,158.51c-0.52-0.01-1.03-0.03-1.55-0.04c0.57-0.48,1.19-0.88,2-0.94
	C642.15,157.85,642,158.18,641.85,158.51z"/>
<path class="st2" d="M464.54,150.63c1.22-1.55,3.22-1.74,5.03-2.08c1.03-0.19,2.14,0.41,2.36,1.52c0.24,1.21,0.5,2.5-1.23,3.13
	c0.2-0.47,0.45-0.93,0.58-1.42c0.5-1.85-0.25-2.57-2.37-2.42C467.33,149.48,466.01,150.25,464.54,150.63z"/>
<path class="st2" d="M459.19,155.04c-0.2-0.01-0.39-0.02-0.59-0.03c1.36-1.32,2.37-2.99,4.55-3.47
	C461.83,152.71,460.51,153.87,459.19,155.04z"/>
<path class="st67" d="M651.32,171.28c0.92-0.02,0.88-1.96,2.33-0.91c-0.33,2.17,0.6,4.24,0.68,6.4c0.07,1.95,0.1,3.86-0.25,5.77
	c-3.03,2.31-5.12,2.31-7.71,0.01c0,0,0,0.03,0,0.03c-1.82-1.87-0.44-3.54,0.44-5.23c0.17-0.36,0.35-0.72,0.52-1.08
	c0.19-0.53,0.74-0.78,1.18-1.07c1.1-0.75,2.32-1.35,1.96-2.91C650.39,171.93,650.88,171.51,651.32,171.28L651.32,171.28z"/>
<path class="st72" d="M651.32,171.27c-0.57,2.14-1.44,4.1-3.99,5c0.23-0.37,0.37-0.83,0.71-1.09c1.09-0.83,2.27-1.52,2.04-3.08
	C650.02,171.62,650.67,171.26,651.32,171.27z"/>
<path class="st115" d="M646.81,177.35c-0.41,1.73-1.41,3.42-0.44,5.23C644.71,180.95,644.83,179.53,646.81,177.35z"/>
<path class="st116" d="M486.68,113.04c1.77,0.15,2.09,1.32,1.94,2.52c-0.17,1.27-1.49,0.84-2.39,0.89c-1.06,0.06-2.13,0-3.2,0.02
	c-1.5,0.02-3.06,0.16-3.35-1.71c-0.03-0.18-0.28-0.35-0.46-0.49c-0.62-0.49-2.07-0.67-1.56-1.63c0.6-1.13,1.88-0.37,2.84-0.19
	c2.05,0.38,4.26-0.57,6.2,0.6c-1.4,1.34-3.43,0.37-5.19,1.03c1.03,1.61,2.64,1,3.95,0.98C486.99,115.04,486.14,113.67,486.68,113.04
	z"/>
<path class="st4" d="M477.36,121.72c0.57,0.85,1.67,1.46,1.48,2.63c-0.08,0.51,0.32,1.31-0.68,1.35c-0.87,0.04-1.31-0.51-1.27-1.28
	C476.94,123.51,476.61,122.53,477.36,121.72z"/>
<path class="st117" d="M441.82,120.12c1.23,0,2.45-0.03,3.68,0.01c0.81,0.02,1.41,0.37,1.53,1.14c0.08,0.54-0.08,1-0.59,1.34
	c-1.28,0.84-7.69,0.14-8.74-0.95c-0.35-0.37-0.99-0.66-0.65-1.25c0.27-0.46,0.87-0.29,1.34-0.3c1.14-0.02,2.29-0.01,3.43-0.01
	C441.82,120.11,441.82,120.11,441.82,120.12z"/>
<path class="st118" d="M437.88,114.69c-0.07-0.58-1.13-0.83-0.77-1.47c0.36-0.64,1.18-0.3,1.79-0.31c1.8-0.03,3.6-0.02,5.4,0
	c0.88,0.01,1.69,0.23,1.77,1.15c0.08,0.92-0.67,1.37-1.56,1.32C442.29,115.26,439.93,116.07,437.88,114.69
	C437.87,114.68,437.88,114.69,437.88,114.69z"/>
<path class="st119" d="M445.93,119.44c-3.08,0-6.16,0-9.23,0c0-0.07,0-0.15,0-0.22c3.08,0,6.16,0,9.24,0
	C445.94,119.3,445.94,119.37,445.93,119.44z"/>
<path class="st106" d="M439.29,123.59c2.24,0,4.49,0,6.73,0c0,0.07,0,0.13-0.01,0.2c-2.31,0-4.62,0-6.93,0
	C439.15,123.72,439.22,123.65,439.29,123.59z"/>
<path class="st120" d="M503.55,123.46c2.13,0.01,4.26,0.02,6.38,0.02c-2.15,0.86-4.41,0.29-6.61,0.37c-0.05,0-0.1-0.1-0.14-0.15
	C503.3,123.62,503.43,123.54,503.55,123.46z"/>
<path class="st121" d="M486.68,113.04c0.64,0.75,1.52,1.51,0.86,2.52c-0.55,0.85-1.64,0.41-2.49,0.51c-2.65,0.29-4.86-0.06-5.4-3.03
	c2.36-0.23,4.7-0.15,7.04,0.01C486.69,113.05,486.68,113.04,486.68,113.04z"/>
</svg>
